M48
; DRILL file KiCad 10.0.0 date 2026-05-06T10:02:08
; FORMAT={-:-/ absolute / metric / decimal}
; #@! TF.CreationDate,2026-05-06T10:02:08-04:00
; #@! TF.GenerationSoftware,Kicad,Pcbnew,10.0.0
; #@! TF.FileFunction,Plated,1,2,PTH
FMAT,2
METRIC
; #@! TA.AperFunction,Plated,PTH,ViaDrill
T1C0.300
; #@! TA.AperFunction,Plated,PTH,ComponentDrill
T2C1.000
%
G90
G05
T1
X86.4Y-73.0
X86.5Y-86.5
X86.5Y-89.75
X86.55Y-79.0
X87.0Y-53.5
X87.0Y-77.0
X87.05Y-62.796
X87.05Y-63.6
X87.721Y-78.0
X88.0Y-59.5
X88.4Y-62.0
X88.4Y-73.2
X88.999Y-76.883
X89.5Y-49.5
X89.5Y-51.0
X89.616Y-73.8
X89.811Y-77.494
X89.85Y-59.5
X90.0Y-89.0
X90.375Y-77.95
X90.5Y-67.5
X90.5Y-87.0
X90.676Y-62.71
X90.886Y-73.8
X91.0Y-84.25
X91.434Y-63.934
X91.5Y-59.0
X91.5Y-62.734
X92.0Y-55.5
X92.0Y-64.5
X93.0Y-49.5
X93.0Y-51.0
X93.5Y-52.5
X94.0Y-80.0
X94.5Y-58.0
X94.5Y-62.5
X95.0Y-80.5
X95.0Y-82.5
X95.5Y-67.45
X96.0Y-81.0
X96.16Y-61.76
X97.0Y-56.0
X97.0Y-69.65
X97.0Y-71.1
X97.0Y-80.5
X97.0Y-82.5
X97.5Y-59.5
X97.8Y-72.57
X97.861Y-67.811
X98.2Y-69.15
X98.217Y-70.217
X98.5Y-64.0
X98.6Y-88.4
X98.623Y-59.296
X98.901Y-67.901
X99.0Y-84.0
X99.5Y-77.0
X99.515Y-86.592
X100.938Y-78.938
X101.0Y-58.4
X101.0Y-66.7
X101.0Y-67.5
X101.024Y-72.176
X101.75Y-77.0
X101.763Y-85.263
X102.0Y-58.4
X102.0Y-69.5
X102.2Y-63.8
X102.25Y-82.5
X102.388Y-78.336
X102.4Y-77.5
X102.5Y-80.0
X102.5Y-90.5
X102.674Y-73.826
X103.08Y-57.4
X103.25Y-65.25
X103.267Y-83.727
X103.366Y-82.746
X103.4Y-79.35
X103.5Y-72.0
X103.5Y-85.25
X103.674Y-74.826
X104.5Y-75.5
X105.5Y-76.0
X106.0Y-58.0
X106.15Y-61.545
X106.25Y-70.045
X107.1Y-70.545
X108.25Y-66.545
X108.473Y-70.403
X108.75Y-62.545
X109.94Y-72.86
X110.0Y-72.0
X111.0Y-57.0
X111.73Y-80.0
X111.97Y-68.47
X112.25Y-64.545
X112.679Y-78.021
X112.752Y-79.401
X112.782Y-63.87
X113.229Y-78.758
X114.0Y-54.5
X114.0Y-69.5
X114.125Y-82.0
X114.5Y-61.25
X114.5Y-66.0
X114.5Y-68.0
X115.5Y-75.0
X117.0Y-79.0
X117.5Y-61.0
X120.2Y-56.4
X121.0Y-88.0
X121.5Y-67.0
X124.0Y-58.0
X124.0Y-76.0
X124.0Y-82.0
T2
X99.5Y-56.0
X102.04Y-56.0
X104.58Y-56.0
X107.12Y-56.0
M30
