%TF.GenerationSoftware,KiCad,Pcbnew,10.0.0*%
%TF.CreationDate,2026-05-06T10:00:07-04:00*%
%TF.ProjectId,blystl15_board,626c7973-746c-4313-955f-626f6172642e,v2*%
%TF.SameCoordinates,Original*%
%TF.FileFunction,Soldermask,Bot*%
%TF.FilePolarity,Negative*%
%FSLAX46Y46*%
G04 Gerber Fmt 4.6, Leading zero omitted, Abs format (unit mm)*
G04 Created by KiCad (PCBNEW 10.0.0) date 2026-05-06 10:00:07*
%MOMM*%
%LPD*%
G01*
G04 APERTURE LIST*
G04 Aperture macros list*
%AMRoundRect*
0 Rectangle with rounded corners*
0 $1 Rounding radius*
0 $2 $3 $4 $5 $6 $7 $8 $9 X,Y pos of 4 corners*
0 Add a 4 corners polygon primitive as box body*
4,1,4,$2,$3,$4,$5,$6,$7,$8,$9,$2,$3,0*
0 Add four circle primitives for the rounded corners*
1,1,$1+$1,$2,$3*
1,1,$1+$1,$4,$5*
1,1,$1+$1,$6,$7*
1,1,$1+$1,$8,$9*
0 Add four rect primitives between the rounded corners*
20,1,$1+$1,$2,$3,$4,$5,0*
20,1,$1+$1,$4,$5,$6,$7,0*
20,1,$1+$1,$6,$7,$8,$9,0*
20,1,$1+$1,$8,$9,$2,$3,0*%
G04 Aperture macros list end*
%ADD10C,0.900000*%
%ADD11C,3.000000*%
%ADD12C,1.700000*%
%ADD13R,0.449999X0.299999*%
%ADD14RoundRect,0.140000X-0.170000X0.140000X-0.170000X-0.140000X0.170000X-0.140000X0.170000X0.140000X0*%
%ADD15R,0.304800X0.660400*%
%ADD16RoundRect,0.135000X0.185000X-0.135000X0.185000X0.135000X-0.185000X0.135000X-0.185000X-0.135000X0*%
%ADD17RoundRect,0.140000X0.140000X0.170000X-0.140000X0.170000X-0.140000X-0.170000X0.140000X-0.170000X0*%
%ADD18C,1.500000*%
G04 APERTURE END LIST*
D10*
%TO.C,SW4*%
X122950000Y-83975000D03*
X122950000Y-79725000D03*
%TD*%
%TO.C,SW2*%
X122950000Y-60275000D03*
X122950000Y-56025000D03*
%TD*%
D11*
%TO.C,J1*%
X88500000Y-57000000D03*
X88500000Y-84000000D03*
X118100000Y-57000000D03*
X118100000Y-84000000D03*
D12*
X99500000Y-56000000D03*
X102040000Y-56000000D03*
X104580000Y-56000000D03*
X107120000Y-56000000D03*
%TD*%
D10*
%TO.C,SW3*%
X123000000Y-77975000D03*
X123000000Y-73725000D03*
%TD*%
D13*
%TO.C,U4*%
X112000000Y-86849999D03*
X112000000Y-87500000D03*
X112000000Y-88149999D03*
X110050002Y-88149999D03*
X110050002Y-87500000D03*
X110050002Y-86849999D03*
%TD*%
D14*
%TO.C,C19*%
X102300001Y-72306200D03*
X102300001Y-73266200D03*
%TD*%
%TO.C,C23*%
X105500000Y-74000000D03*
X105500000Y-74960000D03*
%TD*%
D15*
%TO.C,U2*%
X100500001Y-68500000D03*
X101300002Y-68500000D03*
X102100000Y-68500000D03*
X102900001Y-68500000D03*
X103699999Y-68500000D03*
X104500000Y-68500000D03*
X105300001Y-68500000D03*
X105300001Y-70887600D03*
X104500000Y-70887600D03*
X103700002Y-70887600D03*
X102900001Y-70887600D03*
X102100003Y-70887600D03*
X101300002Y-70887600D03*
X100500001Y-70887600D03*
%TD*%
D14*
%TO.C,C22*%
X104500000Y-73500000D03*
X104500000Y-74460000D03*
%TD*%
D16*
%TO.C,R9*%
X117000000Y-91010000D03*
X117000000Y-89990000D03*
%TD*%
D14*
%TO.C,C21*%
X103500000Y-73000000D03*
X103500000Y-73960000D03*
%TD*%
D17*
%TO.C,C20*%
X105030002Y-88500000D03*
X104070002Y-88500000D03*
%TD*%
D18*
%TO.C,J6*%
X111080000Y-81500000D03*
X108540000Y-81500000D03*
X106000000Y-81500000D03*
X103460000Y-81500000D03*
X100920000Y-81500000D03*
X98380000Y-81500000D03*
%TD*%
M02*
