%TF.GenerationSoftware,KiCad,Pcbnew,10.0.0*%
%TF.CreationDate,2026-05-06T10:00:07-04:00*%
%TF.ProjectId,blystl15_board,626c7973-746c-4313-955f-626f6172642e,v2*%
%TF.SameCoordinates,Original*%
%TF.FileFunction,Soldermask,Top*%
%TF.FilePolarity,Negative*%
%FSLAX46Y46*%
G04 Gerber Fmt 4.6, Leading zero omitted, Abs format (unit mm)*
G04 Created by KiCad (PCBNEW 10.0.0) date 2026-05-06 10:00:07*
%MOMM*%
%LPD*%
G01*
G04 APERTURE LIST*
G04 Aperture macros list*
%AMRoundRect*
0 Rectangle with rounded corners*
0 $1 Rounding radius*
0 $2 $3 $4 $5 $6 $7 $8 $9 X,Y pos of 4 corners*
0 Add a 4 corners polygon primitive as box body*
4,1,4,$2,$3,$4,$5,$6,$7,$8,$9,$2,$3,0*
0 Add four circle primitives for the rounded corners*
1,1,$1+$1,$2,$3*
1,1,$1+$1,$4,$5*
1,1,$1+$1,$6,$7*
1,1,$1+$1,$8,$9*
0 Add four rect primitives between the rounded corners*
20,1,$1+$1,$2,$3,$4,$5,0*
20,1,$1+$1,$4,$5,$6,$7,0*
20,1,$1+$1,$6,$7,$8,$9,0*
20,1,$1+$1,$8,$9,$2,$3,0*%
G04 Aperture macros list end*
%ADD10C,0.900000*%
%ADD11RoundRect,0.187500X0.712500X-0.187500X0.712500X0.187500X-0.712500X0.187500X-0.712500X-0.187500X0*%
%ADD12RoundRect,0.150000X0.750000X-0.150000X0.750000X0.150000X-0.750000X0.150000X-0.750000X-0.150000X0*%
%ADD13RoundRect,0.225000X0.225000X-0.425000X0.225000X0.425000X-0.225000X0.425000X-0.225000X-0.425000X0*%
%ADD14RoundRect,0.140000X-0.170000X0.140000X-0.170000X-0.140000X0.170000X-0.140000X0.170000X0.140000X0*%
%ADD15RoundRect,0.237500X-0.300000X-0.237500X0.300000X-0.237500X0.300000X0.237500X-0.300000X0.237500X0*%
%ADD16RoundRect,0.135000X0.135000X0.185000X-0.135000X0.185000X-0.135000X-0.185000X0.135000X-0.185000X0*%
%ADD17C,3.000000*%
%ADD18C,1.700000*%
%ADD19RoundRect,0.059250X-0.177750X0.442750X-0.177750X-0.442750X0.177750X-0.442750X0.177750X0.442750X0*%
%ADD20RoundRect,0.059250X-0.442750X0.177750X-0.442750X-0.177750X0.442750X-0.177750X0.442750X0.177750X0*%
%ADD21RoundRect,0.102000X-1.750000X1.750000X-1.750000X-1.750000X1.750000X-1.750000X1.750000X1.750000X0*%
%ADD22RoundRect,0.059250X-0.412750X-0.177750X0.412750X-0.177750X0.412750X0.177750X-0.412750X0.177750X0*%
%ADD23RoundRect,0.102000X-0.325000X-0.675000X0.325000X-0.675000X0.325000X0.675000X-0.325000X0.675000X0*%
%ADD24RoundRect,0.225000X0.225000X0.250000X-0.225000X0.250000X-0.225000X-0.250000X0.225000X-0.250000X0*%
%ADD25RoundRect,0.139700X-0.139700X0.850900X-0.139700X-0.850900X0.139700X-0.850900X0.139700X0.850900X0*%
%ADD26RoundRect,0.225000X-0.250000X0.225000X-0.250000X-0.225000X0.250000X-0.225000X0.250000X0.225000X0*%
%ADD27R,0.254000X0.889000*%
%ADD28R,0.889000X0.254000*%
%ADD29RoundRect,0.140000X0.170000X-0.140000X0.170000X0.140000X-0.170000X0.140000X-0.170000X-0.140000X0*%
%ADD30RoundRect,0.225000X-0.225000X-0.250000X0.225000X-0.250000X0.225000X0.250000X-0.225000X0.250000X0*%
%ADD31RoundRect,0.218750X-0.218750X-0.381250X0.218750X-0.381250X0.218750X0.381250X-0.218750X0.381250X0*%
%ADD32R,2.400000X0.740000*%
%ADD33C,1.000000*%
%ADD34R,0.260000X1.200000*%
%ADD35R,1.200000X0.260000*%
%ADD36R,0.500000X0.500000*%
%ADD37RoundRect,0.150000X-0.150000X0.587500X-0.150000X-0.587500X0.150000X-0.587500X0.150000X0.587500X0*%
%ADD38RoundRect,0.135000X0.185000X-0.135000X0.185000X0.135000X-0.185000X0.135000X-0.185000X-0.135000X0*%
%ADD39RoundRect,0.237500X0.300000X0.237500X-0.300000X0.237500X-0.300000X-0.237500X0.300000X-0.237500X0*%
%ADD40RoundRect,0.140000X0.140000X0.170000X-0.140000X0.170000X-0.140000X-0.170000X0.140000X-0.170000X0*%
%ADD41RoundRect,0.250000X1.500000X-0.250000X1.500000X0.250000X-1.500000X0.250000X-1.500000X-0.250000X0*%
%ADD42RoundRect,0.250001X1.449999X-0.499999X1.449999X0.499999X-1.449999X0.499999X-1.449999X-0.499999X0*%
%ADD43RoundRect,0.218750X0.218750X0.381250X-0.218750X0.381250X-0.218750X-0.381250X0.218750X-0.381250X0*%
%ADD44RoundRect,0.225000X0.250000X-0.225000X0.250000X0.225000X-0.250000X0.225000X-0.250000X-0.225000X0*%
G04 APERTURE END LIST*
D10*
%TO.C,SW4*%
X122950000Y-83975000D03*
X122950000Y-79725000D03*
D11*
X122050000Y-83075000D03*
X122050000Y-80625000D03*
D12*
X122050000Y-81850000D03*
D13*
X124000000Y-83700000D03*
X124000000Y-80000000D03*
%TD*%
D14*
%TO.C,C7*%
X91500000Y-60000000D03*
X91500000Y-60960000D03*
%TD*%
D15*
%TO.C,C16*%
X96775000Y-74000000D03*
X98500000Y-74000000D03*
%TD*%
D10*
%TO.C,SW2*%
X122950000Y-60275000D03*
X122950000Y-56025000D03*
D11*
X122050000Y-59375000D03*
X122050000Y-56925000D03*
D12*
X122050000Y-58150000D03*
D13*
X124000000Y-60000000D03*
X124000000Y-56300000D03*
%TD*%
D14*
%TO.C,C9*%
X86400000Y-74000000D03*
X86400000Y-74960000D03*
%TD*%
D16*
%TO.C,R4*%
X96020000Y-69800000D03*
X95000000Y-69800000D03*
%TD*%
D17*
%TO.C,J1*%
X88500000Y-57000000D03*
X88500000Y-84000000D03*
X118100000Y-57000000D03*
X118100000Y-84000000D03*
D18*
X99500000Y-56000000D03*
X102040000Y-56000000D03*
X104580000Y-56000000D03*
X107120000Y-56000000D03*
%TD*%
D16*
%TO.C,R3*%
X95520001Y-55000000D03*
X94500001Y-55000000D03*
%TD*%
D19*
%TO.C,U5*%
X110000000Y-64090000D03*
X109500000Y-64090000D03*
X109000000Y-64090000D03*
X108500000Y-64090000D03*
X108000000Y-64090000D03*
X107500000Y-64090000D03*
X107000000Y-64090000D03*
X106500000Y-64090000D03*
D20*
X105795000Y-64795000D03*
X105795000Y-65295000D03*
X105795000Y-65795000D03*
X105795000Y-66295000D03*
X105795000Y-66795000D03*
X105795000Y-67295000D03*
X105795000Y-67795000D03*
X105795000Y-68295000D03*
D19*
X106500000Y-69000000D03*
X107000000Y-69000000D03*
X107500000Y-69000000D03*
X108000000Y-69000000D03*
X108500000Y-69000000D03*
X109000000Y-69000000D03*
X109500000Y-69000000D03*
X110000000Y-69000000D03*
D20*
X110705000Y-68295000D03*
X110705000Y-67795000D03*
X110705000Y-67295000D03*
X110705000Y-66795000D03*
X110705000Y-66295000D03*
X110705000Y-65795000D03*
X110705000Y-65295000D03*
X110705000Y-64795000D03*
D21*
X108250000Y-66545000D03*
%TD*%
D22*
%TO.C,U7*%
X93005000Y-87850000D03*
X93005000Y-88500000D03*
X93005000Y-89150000D03*
X94995000Y-89150000D03*
X94995000Y-88500000D03*
X94995000Y-87850000D03*
D23*
X94000000Y-88500000D03*
%TD*%
D24*
%TO.C,C10*%
X107750000Y-71545000D03*
X106200000Y-71545000D03*
%TD*%
D25*
%TO.C,U3*%
X91485900Y-75372400D03*
X90215900Y-75372400D03*
X88945900Y-75372400D03*
X87675900Y-75372400D03*
X87675900Y-80300000D03*
X88945900Y-80300000D03*
X90215900Y-80300000D03*
X91485900Y-80300000D03*
%TD*%
D26*
%TO.C,C15*%
X112250000Y-65545000D03*
X112250000Y-67095000D03*
%TD*%
D27*
%TO.C,U8*%
X95000001Y-56579000D03*
X94500000Y-56579000D03*
X94000000Y-56579000D03*
X93499999Y-56579000D03*
D28*
X93043500Y-57539501D03*
X93043500Y-58039500D03*
X93043500Y-58539499D03*
D27*
X93499999Y-59500000D03*
X94000000Y-59500000D03*
X94500000Y-59500000D03*
X95000001Y-59500000D03*
D28*
X95456500Y-58539499D03*
X95456500Y-58039500D03*
X95456500Y-57539501D03*
%TD*%
D29*
%TO.C,C5*%
X119500000Y-80960000D03*
X119500000Y-80000000D03*
%TD*%
D30*
%TO.C,C13*%
X110250000Y-70545000D03*
X111800000Y-70545000D03*
%TD*%
D16*
%TO.C,R5*%
X96030000Y-71300000D03*
X95010000Y-71300000D03*
%TD*%
D31*
%TO.C,L2*%
X105625000Y-62545000D03*
X107750000Y-62545000D03*
%TD*%
D32*
%TO.C,J2*%
X91265000Y-52205000D03*
X87365000Y-52205000D03*
X91265000Y-50935000D03*
X87365000Y-50935000D03*
X91265000Y-49665000D03*
X87365000Y-49665000D03*
%TD*%
D33*
%TO.C,TP3*%
X94500000Y-84000000D03*
%TD*%
D34*
%TO.C,M1*%
X85900000Y-72000000D03*
X86400000Y-72000000D03*
X86900000Y-72000000D03*
X87400000Y-72000000D03*
X87900000Y-72000000D03*
X88400000Y-72000000D03*
X88900000Y-72000000D03*
X89400000Y-72000000D03*
X89900000Y-72000000D03*
X90400000Y-72000000D03*
X90900000Y-72000000D03*
X91400000Y-72000000D03*
X91900000Y-72000000D03*
D35*
X92600000Y-70550000D03*
X92600000Y-70050000D03*
X92600000Y-69550000D03*
X92600000Y-69050000D03*
X92600000Y-68550000D03*
X92600000Y-68050000D03*
X92600000Y-67550000D03*
X92600000Y-67050000D03*
D34*
X91900000Y-65600000D03*
X91400000Y-65600000D03*
X90900000Y-65600000D03*
X90400000Y-65600000D03*
X89900000Y-65600000D03*
X89400000Y-65600000D03*
X88900000Y-65600000D03*
X88400000Y-65600000D03*
X87900000Y-65600000D03*
X87400000Y-65600000D03*
X86900000Y-65600000D03*
X86400000Y-65600000D03*
X85900000Y-65600000D03*
D36*
X89500000Y-69300000D03*
X89500000Y-68300000D03*
%TD*%
D33*
%TO.C,TP2*%
X97000000Y-84000000D03*
%TD*%
D37*
%TO.C,D1*%
X96950000Y-76562500D03*
X95050000Y-76562500D03*
X96000000Y-78437500D03*
%TD*%
D38*
%TO.C,R6*%
X93080900Y-76382400D03*
X93080900Y-75362400D03*
%TD*%
D39*
%TO.C,C2*%
X94862500Y-74000000D03*
X93137500Y-74000000D03*
%TD*%
D29*
%TO.C,C4*%
X119500000Y-59980000D03*
X119500000Y-59020000D03*
%TD*%
%TO.C,C6*%
X119500000Y-75980000D03*
X119500000Y-75020000D03*
%TD*%
D40*
%TO.C,C12*%
X91730000Y-82372400D03*
X90770000Y-82372400D03*
%TD*%
D41*
%TO.C,J5*%
X117300000Y-69000000D03*
X117300000Y-67000000D03*
X117300000Y-65000000D03*
D42*
X123050000Y-71350000D03*
X123050000Y-62650000D03*
%TD*%
D43*
%TO.C,L1*%
X111812500Y-62545000D03*
X109687500Y-62545000D03*
%TD*%
D44*
%TO.C,C1*%
X94400000Y-66050000D03*
X94400000Y-64500000D03*
%TD*%
%TO.C,C11*%
X104275000Y-65820000D03*
X104275000Y-64270000D03*
%TD*%
D14*
%TO.C,C8*%
X91000001Y-55500000D03*
X91000001Y-56460000D03*
%TD*%
%TO.C,C14*%
X87000000Y-87870000D03*
X87000000Y-88830000D03*
%TD*%
D10*
%TO.C,SW3*%
X123000000Y-77975000D03*
X123000000Y-73725000D03*
D11*
X122100000Y-77075000D03*
X122100000Y-74625000D03*
D12*
X122100000Y-75850000D03*
D13*
X124050000Y-77700000D03*
X124050000Y-74000000D03*
%TD*%
D44*
%TO.C,C3*%
X113250000Y-62820000D03*
X113250000Y-61270000D03*
%TD*%
M02*
