%TF.GenerationSoftware,KiCad,Pcbnew,10.0.0*%
%TF.CreationDate,2026-05-06T10:00:07-04:00*%
%TF.ProjectId,blystl15_board,626c7973-746c-4313-955f-626f6172642e,v2*%
%TF.SameCoordinates,Original*%
%TF.FileFunction,Profile,NP*%
%FSLAX46Y46*%
G04 Gerber Fmt 4.6, Leading zero omitted, Abs format (unit mm)*
G04 Created by KiCad (PCBNEW 10.0.0) date 2026-05-06 10:00:07*
%MOMM*%
%LPD*%
G01*
G04 APERTURE LIST*
%TA.AperFunction,Profile*%
%ADD10C,0.050000*%
%TD*%
G04 APERTURE END LIST*
D10*
X80500000Y-52500000D02*
G75*
G02*
X85500000Y-47500000I5000000J0D01*
G01*
X80500000Y-87500000D02*
X80500000Y-52500000D01*
X85500000Y-47500000D02*
X120500000Y-47500000D01*
X85500000Y-92500000D02*
G75*
G02*
X80500000Y-87500000I0J5000000D01*
G01*
X106050002Y-86000000D02*
G75*
G02*
X107050002Y-85000002I999998J0D01*
G01*
X106050002Y-86500000D02*
X106050002Y-86000000D01*
X106050002Y-89500000D02*
X106050002Y-86500000D01*
X107050002Y-85000000D02*
X108050002Y-85000000D01*
X107050002Y-90500000D02*
G75*
G02*
X106050000Y-89500000I-2J1000000D01*
G01*
X107050002Y-90500000D02*
X108050002Y-90500000D01*
X107550002Y-86500000D02*
X107550002Y-89000000D01*
X107550002Y-86500000D02*
G75*
G02*
X108050002Y-86000002I499998J0D01*
G01*
X108050002Y-85000000D02*
G75*
G02*
X108050002Y-86000000I-2J-500000D01*
G01*
X108050002Y-89500000D02*
G75*
G02*
X107550000Y-89000000I-2J500000D01*
G01*
X108050002Y-89500000D02*
G75*
G02*
X108050002Y-90500000I-2J-500000D01*
G01*
X113550002Y-86000000D02*
G75*
G02*
X113550002Y-85000000I-2J500000D01*
G01*
X113550002Y-86000000D02*
G75*
G02*
X114050000Y-86500000I-2J-500000D01*
G01*
X113550002Y-90500000D02*
G75*
G02*
X113550002Y-89500000I-2J500000D01*
G01*
X114050002Y-86500000D02*
X114050002Y-89000000D01*
X114050002Y-89000000D02*
G75*
G02*
X113550002Y-89500002I-500002J0D01*
G01*
X114550002Y-85000000D02*
X113550002Y-85000000D01*
X114550002Y-85000000D02*
G75*
G02*
X115550000Y-86000000I-2J-1000000D01*
G01*
X114550002Y-90500000D02*
X113550002Y-90500000D01*
X115550002Y-86500000D02*
X115550002Y-86000000D01*
X115550002Y-89500000D02*
G75*
G02*
X114550002Y-90500002I-1000002J0D01*
G01*
X115550002Y-89500000D02*
X115550002Y-86500000D01*
X120500000Y-47500000D02*
G75*
G02*
X125500000Y-52500000I0J-5000000D01*
G01*
X120500000Y-92500000D02*
X85500000Y-92500000D01*
X125500000Y-52500000D02*
X125500000Y-87500000D01*
X125500000Y-87500000D02*
G75*
G02*
X120500000Y-92500000I-5000000J0D01*
G01*
M02*
