%TF.GenerationSoftware,KiCad,Pcbnew,10.0.0*%
%TF.CreationDate,2026-05-06T10:00:07-04:00*%
%TF.ProjectId,blystl15_board,626c7973-746c-4313-955f-626f6172642e,v2*%
%TF.SameCoordinates,Original*%
%TF.FileFunction,Legend,Top*%
%TF.FilePolarity,Positive*%
%FSLAX46Y46*%
G04 Gerber Fmt 4.6, Leading zero omitted, Abs format (unit mm)*
G04 Created by KiCad (PCBNEW 10.0.0) date 2026-05-06 10:00:07*
%MOMM*%
%LPD*%
G01*
G04 APERTURE LIST*
%ADD10C,0.150000*%
%ADD11C,0.200000*%
%ADD12C,0.300000*%
%ADD13C,0.120000*%
%ADD14C,0.127000*%
%ADD15C,0.152400*%
%ADD16C,0.000000*%
%ADD17C,0.254000*%
G04 APERTURE END LIST*
D10*
X83070112Y-62746009D02*
X83212969Y-62793628D01*
X83212969Y-62793628D02*
X83260588Y-62841247D01*
X83260588Y-62841247D02*
X83308207Y-62936485D01*
X83308207Y-62936485D02*
X83308207Y-63079342D01*
X83308207Y-63079342D02*
X83260588Y-63174580D01*
X83260588Y-63174580D02*
X83212969Y-63222200D01*
X83212969Y-63222200D02*
X83117731Y-63269819D01*
X83117731Y-63269819D02*
X82736779Y-63269819D01*
X82736779Y-63269819D02*
X82736779Y-62269819D01*
X82736779Y-62269819D02*
X83070112Y-62269819D01*
X83070112Y-62269819D02*
X83165350Y-62317438D01*
X83165350Y-62317438D02*
X83212969Y-62365057D01*
X83212969Y-62365057D02*
X83260588Y-62460295D01*
X83260588Y-62460295D02*
X83260588Y-62555533D01*
X83260588Y-62555533D02*
X83212969Y-62650771D01*
X83212969Y-62650771D02*
X83165350Y-62698390D01*
X83165350Y-62698390D02*
X83070112Y-62746009D01*
X83070112Y-62746009D02*
X82736779Y-62746009D01*
X84212969Y-63269819D02*
X83736779Y-63269819D01*
X83736779Y-63269819D02*
X83736779Y-62269819D01*
X84736779Y-62793628D02*
X84736779Y-63269819D01*
X84403446Y-62269819D02*
X84736779Y-62793628D01*
X84736779Y-62793628D02*
X85070112Y-62269819D01*
X85355827Y-63222200D02*
X85498684Y-63269819D01*
X85498684Y-63269819D02*
X85736779Y-63269819D01*
X85736779Y-63269819D02*
X85832017Y-63222200D01*
X85832017Y-63222200D02*
X85879636Y-63174580D01*
X85879636Y-63174580D02*
X85927255Y-63079342D01*
X85927255Y-63079342D02*
X85927255Y-62984104D01*
X85927255Y-62984104D02*
X85879636Y-62888866D01*
X85879636Y-62888866D02*
X85832017Y-62841247D01*
X85832017Y-62841247D02*
X85736779Y-62793628D01*
X85736779Y-62793628D02*
X85546303Y-62746009D01*
X85546303Y-62746009D02*
X85451065Y-62698390D01*
X85451065Y-62698390D02*
X85403446Y-62650771D01*
X85403446Y-62650771D02*
X85355827Y-62555533D01*
X85355827Y-62555533D02*
X85355827Y-62460295D01*
X85355827Y-62460295D02*
X85403446Y-62365057D01*
X85403446Y-62365057D02*
X85451065Y-62317438D01*
X85451065Y-62317438D02*
X85546303Y-62269819D01*
X85546303Y-62269819D02*
X85784398Y-62269819D01*
X85784398Y-62269819D02*
X85927255Y-62317438D01*
X86212970Y-62269819D02*
X86784398Y-62269819D01*
X86498684Y-63269819D02*
X86498684Y-62269819D01*
G36*
X109470341Y-50672500D02*
G01*
X109470341Y-49907531D01*
X109768425Y-49907531D01*
X109825909Y-49911264D01*
X109874874Y-49921790D01*
X109916665Y-49938397D01*
X109954601Y-49962081D01*
X109985396Y-49990912D01*
X110009813Y-50025271D01*
X110027281Y-50063793D01*
X110038100Y-50107315D01*
X110041870Y-50156842D01*
X110038018Y-50206299D01*
X110027004Y-50249364D01*
X110009263Y-50287130D01*
X109984542Y-50320500D01*
X109953359Y-50348306D01*
X109914879Y-50370890D01*
X109872689Y-50386474D01*
X109823095Y-50396397D01*
X109764761Y-50399924D01*
X109562665Y-50399924D01*
X109562665Y-50273895D01*
X109739894Y-50273895D01*
X109785725Y-50270274D01*
X109819029Y-50260706D01*
X109846322Y-50244035D01*
X109865282Y-50221413D01*
X109876593Y-50193186D01*
X109880669Y-50157025D01*
X109876565Y-50119838D01*
X109865236Y-50091079D01*
X109846220Y-50067859D01*
X109818754Y-50050459D01*
X109785157Y-50040309D01*
X109739344Y-50036491D01*
X109626733Y-50036491D01*
X109626733Y-50672500D01*
X109470341Y-50672500D01*
G37*
G36*
X109896011Y-50672500D02*
G01*
X109709486Y-50325415D01*
X109879662Y-50325415D01*
X110069026Y-50672500D01*
X109896011Y-50672500D01*
G37*
G36*
X110159839Y-50672500D02*
G01*
X110159839Y-49907531D01*
X110671284Y-49907531D01*
X110671284Y-50036491D01*
X110316231Y-50036491D01*
X110316231Y-50221139D01*
X110644905Y-50221139D01*
X110644905Y-50350099D01*
X110316231Y-50350099D01*
X110316231Y-50543539D01*
X110672749Y-50543539D01*
X110672749Y-50672500D01*
X110159839Y-50672500D01*
G37*
G36*
X111019742Y-50672500D02*
G01*
X110752113Y-49908996D01*
X110925907Y-49908996D01*
X111047906Y-50277330D01*
X111092511Y-50430791D01*
X111140184Y-50613881D01*
X111106387Y-50613881D01*
X111152503Y-50430287D01*
X111195047Y-50277330D01*
X111312971Y-49908996D01*
X111485757Y-49908996D01*
X111224265Y-50672500D01*
X111019742Y-50672500D01*
G37*
G36*
X111895261Y-49907531D02*
G01*
X111895261Y-50672500D01*
X111738869Y-50672500D01*
X111738869Y-50045650D01*
X111733740Y-50045650D01*
X111558618Y-50169894D01*
X111558618Y-50026141D01*
X111727558Y-49907531D01*
X111895261Y-49907531D01*
G37*
D11*
G36*
X103685973Y-50631953D02*
G01*
X103685973Y-50481561D01*
X104043850Y-50143101D01*
X104121458Y-50061402D01*
X104149948Y-50024117D01*
X104169574Y-49989595D01*
X104181979Y-49953163D01*
X104186182Y-49913391D01*
X104180864Y-49869996D01*
X104165788Y-49834745D01*
X104141771Y-49805744D01*
X104110040Y-49784125D01*
X104072851Y-49770954D01*
X104029195Y-49766357D01*
X103984390Y-49771334D01*
X103946885Y-49785530D01*
X103915636Y-49808750D01*
X103892541Y-49840240D01*
X103878559Y-49878214D01*
X103873551Y-49925664D01*
X103674249Y-49925664D01*
X103679555Y-49860642D01*
X103694824Y-49803354D01*
X103719617Y-49752435D01*
X103753641Y-49707107D01*
X103795326Y-49669295D01*
X103845525Y-49638496D01*
X103900582Y-49616599D01*
X103962092Y-49603032D01*
X104031210Y-49598318D01*
X104102176Y-49602909D01*
X104164499Y-49616032D01*
X104219460Y-49637030D01*
X104270045Y-49666640D01*
X104311440Y-49702049D01*
X104344696Y-49743520D01*
X104369312Y-49790447D01*
X104384255Y-49842084D01*
X104389392Y-49899591D01*
X104383904Y-49955759D01*
X104367166Y-50011943D01*
X104338378Y-50067416D01*
X104287971Y-50136202D01*
X104223735Y-50206970D01*
X104126465Y-50300821D01*
X103972775Y-50452801D01*
X103972775Y-50460312D01*
X104405024Y-50460312D01*
X104405024Y-50631953D01*
X103685973Y-50631953D01*
G37*
G36*
X105013560Y-49598592D02*
G01*
X105070682Y-49610660D01*
X105122194Y-49630171D01*
X105168893Y-49657058D01*
X105223798Y-49703807D01*
X105270175Y-49763066D01*
X105308234Y-49836760D01*
X105334147Y-49916205D01*
X105350704Y-50009427D01*
X105356594Y-50118738D01*
X105350727Y-50228530D01*
X105334261Y-50321872D01*
X105308539Y-50401144D01*
X105270687Y-50474554D01*
X105224437Y-50533459D01*
X105169565Y-50579808D01*
X105106340Y-50613565D01*
X105033816Y-50634428D01*
X104949869Y-50641723D01*
X104866377Y-50634435D01*
X104794172Y-50613579D01*
X104731149Y-50579808D01*
X104676470Y-50533498D01*
X104630192Y-50474594D01*
X104592114Y-50401144D01*
X104566224Y-50321855D01*
X104549656Y-50228513D01*
X104543774Y-50119105D01*
X104754780Y-50119105D01*
X104760912Y-50226530D01*
X104777372Y-50309187D01*
X104795880Y-50359619D01*
X104818125Y-50398782D01*
X104843745Y-50428621D01*
X104874961Y-50451467D01*
X104909937Y-50465097D01*
X104949869Y-50469776D01*
X104990195Y-50465074D01*
X105025235Y-50451423D01*
X105056236Y-50428621D01*
X105081702Y-50398815D01*
X105103946Y-50359654D01*
X105122609Y-50309187D01*
X105139339Y-50226512D01*
X105145568Y-50119105D01*
X105139341Y-50010967D01*
X105122609Y-49927618D01*
X105103914Y-49876699D01*
X105081664Y-49837360D01*
X105056236Y-49807573D01*
X105025230Y-49784734D01*
X104990191Y-49771065D01*
X104949869Y-49766357D01*
X104909961Y-49771072D01*
X104874987Y-49784815D01*
X104843745Y-49807878D01*
X104818129Y-49837911D01*
X104795883Y-49877296D01*
X104777372Y-49927984D01*
X104760916Y-50010994D01*
X104754780Y-50119105D01*
X104543774Y-50119105D01*
X104543754Y-50118738D01*
X104549638Y-50009432D01*
X104566191Y-49916077D01*
X104592114Y-49836393D01*
X104630216Y-49762489D01*
X104676499Y-49703271D01*
X104731149Y-49656753D01*
X104777649Y-49630018D01*
X104829037Y-49610601D01*
X104886120Y-49598579D01*
X104949869Y-49594410D01*
X105013560Y-49598592D01*
G37*
G36*
X105510956Y-50631953D02*
G01*
X105510956Y-50481561D01*
X105868832Y-50143101D01*
X105946441Y-50061402D01*
X105974931Y-50024117D01*
X105994556Y-49989595D01*
X106006961Y-49953163D01*
X106011165Y-49913391D01*
X106005847Y-49869996D01*
X105990771Y-49834745D01*
X105966754Y-49805744D01*
X105935022Y-49784125D01*
X105897834Y-49770954D01*
X105854178Y-49766357D01*
X105809372Y-49771334D01*
X105771868Y-49785530D01*
X105740618Y-49808750D01*
X105717524Y-49840240D01*
X105703542Y-49878214D01*
X105698534Y-49925664D01*
X105499232Y-49925664D01*
X105504537Y-49860642D01*
X105519806Y-49803354D01*
X105544600Y-49752435D01*
X105578624Y-49707107D01*
X105620308Y-49669295D01*
X105670507Y-49638496D01*
X105725565Y-49616599D01*
X105787075Y-49603032D01*
X105856193Y-49598318D01*
X105927158Y-49602909D01*
X105989482Y-49616032D01*
X106044443Y-49637030D01*
X106095028Y-49666640D01*
X106136423Y-49702049D01*
X106169678Y-49743520D01*
X106194294Y-49790447D01*
X106209238Y-49842084D01*
X106214375Y-49899591D01*
X106208886Y-49955759D01*
X106192149Y-50011943D01*
X106163360Y-50067416D01*
X106112953Y-50136202D01*
X106048717Y-50206970D01*
X105951448Y-50300821D01*
X105797758Y-50452801D01*
X105797758Y-50460312D01*
X106230006Y-50460312D01*
X106230006Y-50631953D01*
X105510956Y-50631953D01*
G37*
G36*
X106845796Y-49599021D02*
G01*
X106904674Y-49612309D01*
X106957484Y-49633794D01*
X107006221Y-49663425D01*
X107047588Y-49698688D01*
X107082292Y-49739856D01*
X107109703Y-49786097D01*
X107128691Y-49836117D01*
X107139384Y-49890676D01*
X106934036Y-49890676D01*
X106921965Y-49856575D01*
X106904044Y-49828454D01*
X106880059Y-49805375D01*
X106851387Y-49788367D01*
X106818007Y-49777860D01*
X106778759Y-49774173D01*
X106735373Y-49778770D01*
X106697902Y-49792021D01*
X106665064Y-49813862D01*
X106637605Y-49842822D01*
X106614281Y-49879873D01*
X106595272Y-49926519D01*
X106578200Y-50003261D01*
X106571946Y-50099993D01*
X106578785Y-50099993D01*
X106605998Y-50058631D01*
X106640884Y-50023422D01*
X106682227Y-49995292D01*
X106729727Y-49974574D01*
X106780844Y-49962078D01*
X106835362Y-49957843D01*
X106894600Y-49962695D01*
X106948106Y-49976810D01*
X106996929Y-49999975D01*
X107040845Y-50031544D01*
X107078078Y-50070203D01*
X107109098Y-50116662D01*
X107131683Y-50167838D01*
X107145534Y-50224288D01*
X107150314Y-50287083D01*
X107144783Y-50354702D01*
X107128731Y-50415473D01*
X107102442Y-50470631D01*
X107066526Y-50520047D01*
X107022573Y-50561734D01*
X106969757Y-50596233D01*
X106911659Y-50621013D01*
X106846277Y-50636374D01*
X106772226Y-50641723D01*
X106696094Y-50635214D01*
X106622444Y-50615711D01*
X106576146Y-50595005D01*
X106533082Y-50567222D01*
X106492873Y-50531875D01*
X106458602Y-50490739D01*
X106428316Y-50440017D01*
X106402259Y-50378185D01*
X106384474Y-50313449D01*
X106381576Y-50293921D01*
X106593257Y-50293921D01*
X106599000Y-50342298D01*
X106615910Y-50385757D01*
X106642996Y-50423269D01*
X106678803Y-50452496D01*
X106721242Y-50471209D01*
X106769783Y-50477592D01*
X106818416Y-50471354D01*
X106860519Y-50453168D01*
X106896142Y-50424540D01*
X106923717Y-50387161D01*
X106941126Y-50343385D01*
X106947103Y-50293250D01*
X106941297Y-50243712D01*
X106924389Y-50200376D01*
X106897404Y-50163284D01*
X106861863Y-50134675D01*
X106819776Y-50116485D01*
X106771249Y-50110251D01*
X106734536Y-50113925D01*
X106701090Y-50124722D01*
X106670761Y-50141904D01*
X106644426Y-50164595D01*
X106622822Y-50191908D01*
X106606629Y-50223091D01*
X106596650Y-50257018D01*
X106593257Y-50293921D01*
X106381576Y-50293921D01*
X106372905Y-50235485D01*
X106368736Y-50142063D01*
X106372153Y-50056500D01*
X106381924Y-49980155D01*
X106397435Y-49912048D01*
X106420129Y-49846121D01*
X106447808Y-49788956D01*
X106480233Y-49739551D01*
X106519151Y-49695442D01*
X106562337Y-49659609D01*
X106610170Y-49631413D01*
X106661918Y-49611106D01*
X106718160Y-49598678D01*
X106779736Y-49594410D01*
X106845796Y-49599021D01*
G37*
D12*
G36*
X98356427Y-51021387D02*
G01*
X98448693Y-51038965D01*
X98525087Y-51066170D01*
X98595382Y-51105651D01*
X98650593Y-51152141D01*
X98692790Y-51205846D01*
X98723444Y-51267011D01*
X98742131Y-51334543D01*
X98748569Y-51409911D01*
X98739318Y-51496509D01*
X98713123Y-51568089D01*
X98671118Y-51629552D01*
X98616495Y-51678365D01*
X98551721Y-51714828D01*
X98477368Y-51739731D01*
X98477368Y-51755118D01*
X98561073Y-51768697D01*
X98640491Y-51803753D01*
X98709601Y-51857789D01*
X98765147Y-51930607D01*
X98791187Y-51986660D01*
X98807381Y-52050718D01*
X98813049Y-52124413D01*
X98806225Y-52203219D01*
X98786304Y-52274731D01*
X98753423Y-52340385D01*
X98708438Y-52398189D01*
X98650346Y-52448040D01*
X98577202Y-52490228D01*
X98497594Y-52519436D01*
X98401865Y-52538247D01*
X98286950Y-52545000D01*
X97640683Y-52545000D01*
X97640683Y-52287079D01*
X97953467Y-52287079D01*
X98225218Y-52287079D01*
X98316005Y-52280045D01*
X98381084Y-52261574D01*
X98426810Y-52234323D01*
X98462278Y-52195362D01*
X98483348Y-52149688D01*
X98490648Y-52095104D01*
X98482615Y-52034125D01*
X98459233Y-51981806D01*
X98421827Y-51938334D01*
X98370206Y-51904686D01*
X98309031Y-51884116D01*
X98233369Y-51876751D01*
X97953467Y-51876751D01*
X97953467Y-52287079D01*
X97640683Y-52287079D01*
X97640683Y-51659863D01*
X97953467Y-51659863D01*
X98199389Y-51659863D01*
X98263337Y-51653646D01*
X98318732Y-51635775D01*
X98366445Y-51606221D01*
X98401897Y-51567082D01*
X98424241Y-51519044D01*
X98432030Y-51460744D01*
X98425293Y-51407994D01*
X98405862Y-51363538D01*
X98373320Y-51325373D01*
X98331176Y-51297494D01*
X98276423Y-51279551D01*
X98205434Y-51272983D01*
X97953467Y-51272983D01*
X97953467Y-51659863D01*
X97640683Y-51659863D01*
X97640683Y-51015062D01*
X98245276Y-51015062D01*
X98356427Y-51021387D01*
G37*
G36*
X99029937Y-52545000D02*
G01*
X99029937Y-51017993D01*
X99342720Y-51017993D01*
X99342720Y-52287079D01*
X100003000Y-52287079D01*
X100003000Y-52545000D01*
X99029937Y-52545000D01*
G37*
G36*
X100510048Y-52545000D02*
G01*
X100510048Y-51969899D01*
X99944107Y-51017993D01*
X100310105Y-51017993D01*
X100569033Y-51492618D01*
X100639741Y-51634767D01*
X100703489Y-51803478D01*
X100634521Y-51803478D01*
X100696161Y-51633760D01*
X100763939Y-51492618D01*
X101014532Y-51017993D01*
X101379614Y-51017993D01*
X100822832Y-51969899D01*
X100822832Y-52545000D01*
X100510048Y-52545000D01*
G37*
G36*
X102125990Y-52568447D02*
G01*
X102004755Y-52561692D01*
X101899132Y-52542506D01*
X101806978Y-52512118D01*
X101721792Y-52467637D01*
X101651925Y-52412167D01*
X101595494Y-52345239D01*
X101554374Y-52268199D01*
X101528766Y-52178343D01*
X101519748Y-52072756D01*
X101822548Y-52072756D01*
X101837599Y-52144841D01*
X101868527Y-52201625D01*
X101914442Y-52246433D01*
X101974773Y-52279019D01*
X102043996Y-52297989D01*
X102124982Y-52304665D01*
X102205462Y-52298277D01*
X102270612Y-52280576D01*
X102326743Y-52250751D01*
X102367240Y-52212341D01*
X102393188Y-52164878D01*
X102401953Y-52109759D01*
X102393935Y-52061040D01*
X102370721Y-52022015D01*
X102334431Y-51990284D01*
X102281053Y-51961015D01*
X102219127Y-51937740D01*
X102138721Y-51915769D01*
X101970743Y-51873729D01*
X101845247Y-51834013D01*
X101745592Y-51784270D01*
X101667485Y-51725534D01*
X101619938Y-51671508D01*
X101586036Y-51610039D01*
X101565145Y-51539657D01*
X101557850Y-51458271D01*
X101566397Y-51368234D01*
X101591212Y-51288163D01*
X101632131Y-51216013D01*
X101686869Y-51152959D01*
X101754235Y-51099386D01*
X101835921Y-51054996D01*
X101923990Y-51023671D01*
X102021917Y-51004228D01*
X102131302Y-50997477D01*
X102242716Y-51004376D01*
X102340329Y-51024059D01*
X102426133Y-51055454D01*
X102505362Y-51100089D01*
X102570323Y-51153678D01*
X102622688Y-51216563D01*
X102661694Y-51288134D01*
X102685296Y-51366724D01*
X102693396Y-51454150D01*
X102393802Y-51454150D01*
X102381066Y-51396246D01*
X102355184Y-51349489D01*
X102315583Y-51311543D01*
X102266556Y-51284698D01*
X102205459Y-51267486D01*
X102129287Y-51261259D01*
X102054054Y-51267301D01*
X101994556Y-51283882D01*
X101944088Y-51311584D01*
X101909285Y-51346439D01*
X101887579Y-51388994D01*
X101880251Y-51437663D01*
X101888902Y-51490030D01*
X101913865Y-51531544D01*
X101952050Y-51564622D01*
X102003624Y-51591994D01*
X102123059Y-51630371D01*
X102260720Y-51664260D01*
X102354283Y-51689932D01*
X102439323Y-51722695D01*
X102517675Y-51764372D01*
X102584128Y-51813462D01*
X102639447Y-51872329D01*
X102680573Y-51941048D01*
X102705826Y-52018637D01*
X102714737Y-52111224D01*
X102706673Y-52201336D01*
X102683346Y-52281153D01*
X102645128Y-52352658D01*
X102593042Y-52414937D01*
X102526527Y-52468016D01*
X102443353Y-52512118D01*
X102353571Y-52542350D01*
X102248637Y-52561610D01*
X102125990Y-52568447D01*
G37*
G36*
X102863572Y-51278845D02*
G01*
X102863572Y-51020924D01*
X104112142Y-51020924D01*
X104112142Y-51278845D01*
X103645302Y-51278845D01*
X103645302Y-52547930D01*
X103332519Y-52547930D01*
X103332519Y-51278845D01*
X102863572Y-51278845D01*
G37*
G36*
X104648774Y-52545000D02*
G01*
X104238629Y-51017993D01*
X104580081Y-51017993D01*
X104757401Y-51768857D01*
X104796877Y-51970082D01*
X104832231Y-52185138D01*
X104866120Y-52392592D01*
X104810799Y-52392592D01*
X104847618Y-52185138D01*
X104885628Y-51970082D01*
X104928676Y-51768857D01*
X105115339Y-51017993D01*
X105440304Y-51017993D01*
X105625959Y-51768857D01*
X105669007Y-51970082D01*
X105707475Y-52185138D01*
X105744844Y-52392592D01*
X105687508Y-52392592D01*
X105721763Y-52185138D01*
X105757667Y-51970082D01*
X105797143Y-51768857D01*
X105974555Y-51017993D01*
X106317014Y-51017993D01*
X105905861Y-52545000D01*
X105549023Y-52545000D01*
X105346057Y-51764460D01*
X105316121Y-51631508D01*
X105290095Y-51482818D01*
X105238346Y-51170401D01*
X105316290Y-51170401D01*
X105264449Y-51476681D01*
X105240308Y-51624389D01*
X105208579Y-51764460D01*
X105006620Y-52545000D01*
X104648774Y-52545000D01*
G37*
G36*
X106264166Y-52542069D02*
G01*
X106785960Y-51015062D01*
X107195922Y-51015062D01*
X107731088Y-52542069D01*
X107383500Y-52542069D01*
X107138494Y-51805585D01*
X107048826Y-51493809D01*
X106953022Y-51123506D01*
X107021715Y-51123506D01*
X106929941Y-51495824D01*
X106845403Y-51805585D01*
X106609739Y-52542069D01*
X106264166Y-52542069D01*
G37*
G36*
X106590230Y-52187428D02*
G01*
X106590230Y-51945444D01*
X107405024Y-51945444D01*
X107405024Y-52187428D01*
X106590230Y-52187428D01*
G37*
G36*
X107671737Y-51278845D02*
G01*
X107671737Y-51020924D01*
X108920307Y-51020924D01*
X108920307Y-51278845D01*
X108453467Y-51278845D01*
X108453467Y-52547930D01*
X108140683Y-52547930D01*
X108140683Y-51278845D01*
X107671737Y-51278845D01*
G37*
G36*
X109733269Y-52562585D02*
G01*
X109600510Y-52551989D01*
X109480201Y-52521146D01*
X109370110Y-52470536D01*
X109271537Y-52400639D01*
X109187497Y-52312363D01*
X109117044Y-52203548D01*
X109077841Y-52115256D01*
X109048859Y-52016425D01*
X109030695Y-51905578D01*
X109024354Y-51781038D01*
X109030735Y-51655991D01*
X109049009Y-51544741D01*
X109078163Y-51445596D01*
X109117594Y-51357063D01*
X109169419Y-51273152D01*
X109228819Y-51201269D01*
X109296014Y-51140303D01*
X109371576Y-51089526D01*
X109481991Y-51038831D01*
X109601846Y-51008029D01*
X109733269Y-50997477D01*
X109860305Y-51006765D01*
X109975436Y-51033747D01*
X110082028Y-51078696D01*
X110174646Y-51139535D01*
X110253545Y-51216437D01*
X110317070Y-51309528D01*
X110362377Y-51415378D01*
X110389885Y-51538780D01*
X110072980Y-51538780D01*
X110057673Y-51477979D01*
X110033504Y-51426398D01*
X110000589Y-51381149D01*
X109960689Y-51343325D01*
X109914349Y-51313215D01*
X109860764Y-51290935D01*
X109802819Y-51277584D01*
X109738764Y-51272983D01*
X109661260Y-51279861D01*
X109592225Y-51299798D01*
X109530028Y-51332517D01*
X109475731Y-51377145D01*
X109429338Y-51434188D01*
X109390627Y-51505532D01*
X109363991Y-51582705D01*
X109346961Y-51673731D01*
X109340893Y-51781038D01*
X109347063Y-51890529D01*
X109364292Y-51982374D01*
X109391085Y-52059292D01*
X109430138Y-52130161D01*
X109476564Y-52186284D01*
X109530578Y-52229651D01*
X109592282Y-52261184D01*
X109660787Y-52280434D01*
X109737665Y-52287079D01*
X109801727Y-52282466D01*
X109859207Y-52269127D01*
X109912513Y-52246945D01*
X109959682Y-52216829D01*
X110000373Y-52178780D01*
X110033504Y-52133206D01*
X110057993Y-52081312D01*
X110074079Y-52021282D01*
X110390893Y-52021282D01*
X110369097Y-52124864D01*
X110327878Y-52224522D01*
X110269135Y-52316034D01*
X110193148Y-52398179D01*
X110102259Y-52465965D01*
X109993387Y-52518713D01*
X109915115Y-52542606D01*
X109828788Y-52557444D01*
X109733269Y-52562585D01*
G37*
G36*
X110624633Y-52545000D02*
G01*
X110624633Y-51015062D01*
X110937417Y-51015062D01*
X110937417Y-51636416D01*
X111603558Y-51636416D01*
X111603558Y-51015062D01*
X111916342Y-51015062D01*
X111916342Y-52545000D01*
X111603558Y-52545000D01*
X111603558Y-51894337D01*
X110937417Y-51894337D01*
X110937417Y-52545000D01*
X110624633Y-52545000D01*
G37*
D10*
X117866667Y-79207200D02*
X118009524Y-79254819D01*
X118009524Y-79254819D02*
X118247619Y-79254819D01*
X118247619Y-79254819D02*
X118342857Y-79207200D01*
X118342857Y-79207200D02*
X118390476Y-79159580D01*
X118390476Y-79159580D02*
X118438095Y-79064342D01*
X118438095Y-79064342D02*
X118438095Y-78969104D01*
X118438095Y-78969104D02*
X118390476Y-78873866D01*
X118390476Y-78873866D02*
X118342857Y-78826247D01*
X118342857Y-78826247D02*
X118247619Y-78778628D01*
X118247619Y-78778628D02*
X118057143Y-78731009D01*
X118057143Y-78731009D02*
X117961905Y-78683390D01*
X117961905Y-78683390D02*
X117914286Y-78635771D01*
X117914286Y-78635771D02*
X117866667Y-78540533D01*
X117866667Y-78540533D02*
X117866667Y-78445295D01*
X117866667Y-78445295D02*
X117914286Y-78350057D01*
X117914286Y-78350057D02*
X117961905Y-78302438D01*
X117961905Y-78302438D02*
X118057143Y-78254819D01*
X118057143Y-78254819D02*
X118295238Y-78254819D01*
X118295238Y-78254819D02*
X118438095Y-78302438D01*
X118771429Y-78254819D02*
X119009524Y-79254819D01*
X119009524Y-79254819D02*
X119200000Y-78540533D01*
X119200000Y-78540533D02*
X119390476Y-79254819D01*
X119390476Y-79254819D02*
X119628572Y-78254819D01*
X120438095Y-78588152D02*
X120438095Y-79254819D01*
X120200000Y-78207200D02*
X119961905Y-78921485D01*
X119961905Y-78921485D02*
X120580952Y-78921485D01*
X119466667Y-55407200D02*
X119609524Y-55454819D01*
X119609524Y-55454819D02*
X119847619Y-55454819D01*
X119847619Y-55454819D02*
X119942857Y-55407200D01*
X119942857Y-55407200D02*
X119990476Y-55359580D01*
X119990476Y-55359580D02*
X120038095Y-55264342D01*
X120038095Y-55264342D02*
X120038095Y-55169104D01*
X120038095Y-55169104D02*
X119990476Y-55073866D01*
X119990476Y-55073866D02*
X119942857Y-55026247D01*
X119942857Y-55026247D02*
X119847619Y-54978628D01*
X119847619Y-54978628D02*
X119657143Y-54931009D01*
X119657143Y-54931009D02*
X119561905Y-54883390D01*
X119561905Y-54883390D02*
X119514286Y-54835771D01*
X119514286Y-54835771D02*
X119466667Y-54740533D01*
X119466667Y-54740533D02*
X119466667Y-54645295D01*
X119466667Y-54645295D02*
X119514286Y-54550057D01*
X119514286Y-54550057D02*
X119561905Y-54502438D01*
X119561905Y-54502438D02*
X119657143Y-54454819D01*
X119657143Y-54454819D02*
X119895238Y-54454819D01*
X119895238Y-54454819D02*
X120038095Y-54502438D01*
X120371429Y-54454819D02*
X120609524Y-55454819D01*
X120609524Y-55454819D02*
X120800000Y-54740533D01*
X120800000Y-54740533D02*
X120990476Y-55454819D01*
X120990476Y-55454819D02*
X121228572Y-54454819D01*
X121561905Y-54550057D02*
X121609524Y-54502438D01*
X121609524Y-54502438D02*
X121704762Y-54454819D01*
X121704762Y-54454819D02*
X121942857Y-54454819D01*
X121942857Y-54454819D02*
X122038095Y-54502438D01*
X122038095Y-54502438D02*
X122085714Y-54550057D01*
X122085714Y-54550057D02*
X122133333Y-54645295D01*
X122133333Y-54645295D02*
X122133333Y-54740533D01*
X122133333Y-54740533D02*
X122085714Y-54883390D01*
X122085714Y-54883390D02*
X121514286Y-55454819D01*
X121514286Y-55454819D02*
X122133333Y-55454819D01*
X101033333Y-59807200D02*
X101176190Y-59854819D01*
X101176190Y-59854819D02*
X101414285Y-59854819D01*
X101414285Y-59854819D02*
X101509523Y-59807200D01*
X101509523Y-59807200D02*
X101557142Y-59759580D01*
X101557142Y-59759580D02*
X101604761Y-59664342D01*
X101604761Y-59664342D02*
X101604761Y-59569104D01*
X101604761Y-59569104D02*
X101557142Y-59473866D01*
X101557142Y-59473866D02*
X101509523Y-59426247D01*
X101509523Y-59426247D02*
X101414285Y-59378628D01*
X101414285Y-59378628D02*
X101223809Y-59331009D01*
X101223809Y-59331009D02*
X101128571Y-59283390D01*
X101128571Y-59283390D02*
X101080952Y-59235771D01*
X101080952Y-59235771D02*
X101033333Y-59140533D01*
X101033333Y-59140533D02*
X101033333Y-59045295D01*
X101033333Y-59045295D02*
X101080952Y-58950057D01*
X101080952Y-58950057D02*
X101128571Y-58902438D01*
X101128571Y-58902438D02*
X101223809Y-58854819D01*
X101223809Y-58854819D02*
X101461904Y-58854819D01*
X101461904Y-58854819D02*
X101604761Y-58902438D01*
X101985714Y-59807200D02*
X102128571Y-59854819D01*
X102128571Y-59854819D02*
X102366666Y-59854819D01*
X102366666Y-59854819D02*
X102461904Y-59807200D01*
X102461904Y-59807200D02*
X102509523Y-59759580D01*
X102509523Y-59759580D02*
X102557142Y-59664342D01*
X102557142Y-59664342D02*
X102557142Y-59569104D01*
X102557142Y-59569104D02*
X102509523Y-59473866D01*
X102509523Y-59473866D02*
X102461904Y-59426247D01*
X102461904Y-59426247D02*
X102366666Y-59378628D01*
X102366666Y-59378628D02*
X102176190Y-59331009D01*
X102176190Y-59331009D02*
X102080952Y-59283390D01*
X102080952Y-59283390D02*
X102033333Y-59235771D01*
X102033333Y-59235771D02*
X101985714Y-59140533D01*
X101985714Y-59140533D02*
X101985714Y-59045295D01*
X101985714Y-59045295D02*
X102033333Y-58950057D01*
X102033333Y-58950057D02*
X102080952Y-58902438D01*
X102080952Y-58902438D02*
X102176190Y-58854819D01*
X102176190Y-58854819D02*
X102414285Y-58854819D01*
X102414285Y-58854819D02*
X102557142Y-58902438D01*
X102985714Y-59854819D02*
X102985714Y-58854819D01*
X102985714Y-58854819D02*
X103223809Y-58854819D01*
X103223809Y-58854819D02*
X103366666Y-58902438D01*
X103366666Y-58902438D02*
X103461904Y-58997676D01*
X103461904Y-58997676D02*
X103509523Y-59092914D01*
X103509523Y-59092914D02*
X103557142Y-59283390D01*
X103557142Y-59283390D02*
X103557142Y-59426247D01*
X103557142Y-59426247D02*
X103509523Y-59616723D01*
X103509523Y-59616723D02*
X103461904Y-59711961D01*
X103461904Y-59711961D02*
X103366666Y-59807200D01*
X103366666Y-59807200D02*
X103223809Y-59854819D01*
X103223809Y-59854819D02*
X102985714Y-59854819D01*
X104509523Y-59854819D02*
X103938095Y-59854819D01*
X104223809Y-59854819D02*
X104223809Y-58854819D01*
X104223809Y-58854819D02*
X104128571Y-58997676D01*
X104128571Y-58997676D02*
X104033333Y-59092914D01*
X104033333Y-59092914D02*
X103938095Y-59140533D01*
X104842857Y-58854819D02*
X105461904Y-58854819D01*
X105461904Y-58854819D02*
X105128571Y-59235771D01*
X105128571Y-59235771D02*
X105271428Y-59235771D01*
X105271428Y-59235771D02*
X105366666Y-59283390D01*
X105366666Y-59283390D02*
X105414285Y-59331009D01*
X105414285Y-59331009D02*
X105461904Y-59426247D01*
X105461904Y-59426247D02*
X105461904Y-59664342D01*
X105461904Y-59664342D02*
X105414285Y-59759580D01*
X105414285Y-59759580D02*
X105366666Y-59807200D01*
X105366666Y-59807200D02*
X105271428Y-59854819D01*
X105271428Y-59854819D02*
X104985714Y-59854819D01*
X104985714Y-59854819D02*
X104890476Y-59807200D01*
X104890476Y-59807200D02*
X104842857Y-59759580D01*
X106080952Y-58854819D02*
X106176190Y-58854819D01*
X106176190Y-58854819D02*
X106271428Y-58902438D01*
X106271428Y-58902438D02*
X106319047Y-58950057D01*
X106319047Y-58950057D02*
X106366666Y-59045295D01*
X106366666Y-59045295D02*
X106414285Y-59235771D01*
X106414285Y-59235771D02*
X106414285Y-59473866D01*
X106414285Y-59473866D02*
X106366666Y-59664342D01*
X106366666Y-59664342D02*
X106319047Y-59759580D01*
X106319047Y-59759580D02*
X106271428Y-59807200D01*
X106271428Y-59807200D02*
X106176190Y-59854819D01*
X106176190Y-59854819D02*
X106080952Y-59854819D01*
X106080952Y-59854819D02*
X105985714Y-59807200D01*
X105985714Y-59807200D02*
X105938095Y-59759580D01*
X105938095Y-59759580D02*
X105890476Y-59664342D01*
X105890476Y-59664342D02*
X105842857Y-59473866D01*
X105842857Y-59473866D02*
X105842857Y-59235771D01*
X105842857Y-59235771D02*
X105890476Y-59045295D01*
X105890476Y-59045295D02*
X105938095Y-58950057D01*
X105938095Y-58950057D02*
X105985714Y-58902438D01*
X105985714Y-58902438D02*
X106080952Y-58854819D01*
X107271428Y-58854819D02*
X107080952Y-58854819D01*
X107080952Y-58854819D02*
X106985714Y-58902438D01*
X106985714Y-58902438D02*
X106938095Y-58950057D01*
X106938095Y-58950057D02*
X106842857Y-59092914D01*
X106842857Y-59092914D02*
X106795238Y-59283390D01*
X106795238Y-59283390D02*
X106795238Y-59664342D01*
X106795238Y-59664342D02*
X106842857Y-59759580D01*
X106842857Y-59759580D02*
X106890476Y-59807200D01*
X106890476Y-59807200D02*
X106985714Y-59854819D01*
X106985714Y-59854819D02*
X107176190Y-59854819D01*
X107176190Y-59854819D02*
X107271428Y-59807200D01*
X107271428Y-59807200D02*
X107319047Y-59759580D01*
X107319047Y-59759580D02*
X107366666Y-59664342D01*
X107366666Y-59664342D02*
X107366666Y-59426247D01*
X107366666Y-59426247D02*
X107319047Y-59331009D01*
X107319047Y-59331009D02*
X107271428Y-59283390D01*
X107271428Y-59283390D02*
X107176190Y-59235771D01*
X107176190Y-59235771D02*
X106985714Y-59235771D01*
X106985714Y-59235771D02*
X106890476Y-59283390D01*
X106890476Y-59283390D02*
X106842857Y-59331009D01*
X106842857Y-59331009D02*
X106795238Y-59426247D01*
X103238095Y-67054819D02*
X103238095Y-67864342D01*
X103238095Y-67864342D02*
X103285714Y-67959580D01*
X103285714Y-67959580D02*
X103333333Y-68007200D01*
X103333333Y-68007200D02*
X103428571Y-68054819D01*
X103428571Y-68054819D02*
X103619047Y-68054819D01*
X103619047Y-68054819D02*
X103714285Y-68007200D01*
X103714285Y-68007200D02*
X103761904Y-67959580D01*
X103761904Y-67959580D02*
X103809523Y-67864342D01*
X103809523Y-67864342D02*
X103809523Y-67054819D01*
X104761904Y-67054819D02*
X104285714Y-67054819D01*
X104285714Y-67054819D02*
X104238095Y-67531009D01*
X104238095Y-67531009D02*
X104285714Y-67483390D01*
X104285714Y-67483390D02*
X104380952Y-67435771D01*
X104380952Y-67435771D02*
X104619047Y-67435771D01*
X104619047Y-67435771D02*
X104714285Y-67483390D01*
X104714285Y-67483390D02*
X104761904Y-67531009D01*
X104761904Y-67531009D02*
X104809523Y-67626247D01*
X104809523Y-67626247D02*
X104809523Y-67864342D01*
X104809523Y-67864342D02*
X104761904Y-67959580D01*
X104761904Y-67959580D02*
X104714285Y-68007200D01*
X104714285Y-68007200D02*
X104619047Y-68054819D01*
X104619047Y-68054819D02*
X104380952Y-68054819D01*
X104380952Y-68054819D02*
X104285714Y-68007200D01*
X104285714Y-68007200D02*
X104238095Y-67959580D01*
X106538095Y-74254819D02*
X106538095Y-73254819D01*
X106538095Y-73254819D02*
X107109523Y-74254819D01*
X107109523Y-74254819D02*
X107109523Y-73254819D01*
X107585714Y-74254819D02*
X107585714Y-73254819D01*
X107585714Y-73254819D02*
X107966666Y-73254819D01*
X107966666Y-73254819D02*
X108061904Y-73302438D01*
X108061904Y-73302438D02*
X108109523Y-73350057D01*
X108109523Y-73350057D02*
X108157142Y-73445295D01*
X108157142Y-73445295D02*
X108157142Y-73588152D01*
X108157142Y-73588152D02*
X108109523Y-73683390D01*
X108109523Y-73683390D02*
X108061904Y-73731009D01*
X108061904Y-73731009D02*
X107966666Y-73778628D01*
X107966666Y-73778628D02*
X107585714Y-73778628D01*
X108585714Y-74254819D02*
X108585714Y-73254819D01*
X108585714Y-73254819D02*
X108919047Y-73969104D01*
X108919047Y-73969104D02*
X109252380Y-73254819D01*
X109252380Y-73254819D02*
X109252380Y-74254819D01*
X110252380Y-74254819D02*
X109680952Y-74254819D01*
X109966666Y-74254819D02*
X109966666Y-73254819D01*
X109966666Y-73254819D02*
X109871428Y-73397676D01*
X109871428Y-73397676D02*
X109776190Y-73492914D01*
X109776190Y-73492914D02*
X109680952Y-73540533D01*
X110585714Y-73254819D02*
X111204761Y-73254819D01*
X111204761Y-73254819D02*
X110871428Y-73635771D01*
X110871428Y-73635771D02*
X111014285Y-73635771D01*
X111014285Y-73635771D02*
X111109523Y-73683390D01*
X111109523Y-73683390D02*
X111157142Y-73731009D01*
X111157142Y-73731009D02*
X111204761Y-73826247D01*
X111204761Y-73826247D02*
X111204761Y-74064342D01*
X111204761Y-74064342D02*
X111157142Y-74159580D01*
X111157142Y-74159580D02*
X111109523Y-74207200D01*
X111109523Y-74207200D02*
X111014285Y-74254819D01*
X111014285Y-74254819D02*
X110728571Y-74254819D01*
X110728571Y-74254819D02*
X110633333Y-74207200D01*
X110633333Y-74207200D02*
X110585714Y-74159580D01*
X111823809Y-73254819D02*
X111919047Y-73254819D01*
X111919047Y-73254819D02*
X112014285Y-73302438D01*
X112014285Y-73302438D02*
X112061904Y-73350057D01*
X112061904Y-73350057D02*
X112109523Y-73445295D01*
X112109523Y-73445295D02*
X112157142Y-73635771D01*
X112157142Y-73635771D02*
X112157142Y-73873866D01*
X112157142Y-73873866D02*
X112109523Y-74064342D01*
X112109523Y-74064342D02*
X112061904Y-74159580D01*
X112061904Y-74159580D02*
X112014285Y-74207200D01*
X112014285Y-74207200D02*
X111919047Y-74254819D01*
X111919047Y-74254819D02*
X111823809Y-74254819D01*
X111823809Y-74254819D02*
X111728571Y-74207200D01*
X111728571Y-74207200D02*
X111680952Y-74159580D01*
X111680952Y-74159580D02*
X111633333Y-74064342D01*
X111633333Y-74064342D02*
X111585714Y-73873866D01*
X111585714Y-73873866D02*
X111585714Y-73635771D01*
X111585714Y-73635771D02*
X111633333Y-73445295D01*
X111633333Y-73445295D02*
X111680952Y-73350057D01*
X111680952Y-73350057D02*
X111728571Y-73302438D01*
X111728571Y-73302438D02*
X111823809Y-73254819D01*
X113014285Y-73588152D02*
X113014285Y-74254819D01*
X112776190Y-73207200D02*
X112538095Y-73921485D01*
X112538095Y-73921485D02*
X113157142Y-73921485D01*
X96590476Y-88162295D02*
X96590476Y-88809914D01*
X96590476Y-88809914D02*
X96628571Y-88886104D01*
X96628571Y-88886104D02*
X96666666Y-88924200D01*
X96666666Y-88924200D02*
X96742857Y-88962295D01*
X96742857Y-88962295D02*
X96895238Y-88962295D01*
X96895238Y-88962295D02*
X96971428Y-88924200D01*
X96971428Y-88924200D02*
X97009523Y-88886104D01*
X97009523Y-88886104D02*
X97047619Y-88809914D01*
X97047619Y-88809914D02*
X97047619Y-88162295D01*
X97352380Y-88162295D02*
X97885714Y-88162295D01*
X97885714Y-88162295D02*
X97542856Y-88962295D01*
X91695238Y-90070295D02*
X91847619Y-90070295D01*
X91847619Y-90070295D02*
X91923809Y-90108390D01*
X91923809Y-90108390D02*
X92000000Y-90184580D01*
X92000000Y-90184580D02*
X92038095Y-90336961D01*
X92038095Y-90336961D02*
X92038095Y-90603628D01*
X92038095Y-90603628D02*
X92000000Y-90756009D01*
X92000000Y-90756009D02*
X91923809Y-90832200D01*
X91923809Y-90832200D02*
X91847619Y-90870295D01*
X91847619Y-90870295D02*
X91695238Y-90870295D01*
X91695238Y-90870295D02*
X91619047Y-90832200D01*
X91619047Y-90832200D02*
X91542857Y-90756009D01*
X91542857Y-90756009D02*
X91504761Y-90603628D01*
X91504761Y-90603628D02*
X91504761Y-90336961D01*
X91504761Y-90336961D02*
X91542857Y-90184580D01*
X91542857Y-90184580D02*
X91619047Y-90108390D01*
X91619047Y-90108390D02*
X91695238Y-90070295D01*
X92380952Y-90870295D02*
X92380952Y-90070295D01*
X92380952Y-90070295D02*
X92685714Y-90070295D01*
X92685714Y-90070295D02*
X92761904Y-90108390D01*
X92761904Y-90108390D02*
X92799999Y-90146485D01*
X92799999Y-90146485D02*
X92838095Y-90222676D01*
X92838095Y-90222676D02*
X92838095Y-90336961D01*
X92838095Y-90336961D02*
X92799999Y-90413152D01*
X92799999Y-90413152D02*
X92761904Y-90451247D01*
X92761904Y-90451247D02*
X92685714Y-90489342D01*
X92685714Y-90489342D02*
X92380952Y-90489342D01*
X93066666Y-90070295D02*
X93523809Y-90070295D01*
X93295237Y-90870295D02*
X93295237Y-90070295D01*
X93714285Y-90070295D02*
X94209523Y-90070295D01*
X94209523Y-90070295D02*
X93942857Y-90375057D01*
X93942857Y-90375057D02*
X94057142Y-90375057D01*
X94057142Y-90375057D02*
X94133333Y-90413152D01*
X94133333Y-90413152D02*
X94171428Y-90451247D01*
X94171428Y-90451247D02*
X94209523Y-90527438D01*
X94209523Y-90527438D02*
X94209523Y-90717914D01*
X94209523Y-90717914D02*
X94171428Y-90794104D01*
X94171428Y-90794104D02*
X94133333Y-90832200D01*
X94133333Y-90832200D02*
X94057142Y-90870295D01*
X94057142Y-90870295D02*
X93828571Y-90870295D01*
X93828571Y-90870295D02*
X93752380Y-90832200D01*
X93752380Y-90832200D02*
X93714285Y-90794104D01*
X94704762Y-90070295D02*
X94780952Y-90070295D01*
X94780952Y-90070295D02*
X94857143Y-90108390D01*
X94857143Y-90108390D02*
X94895238Y-90146485D01*
X94895238Y-90146485D02*
X94933333Y-90222676D01*
X94933333Y-90222676D02*
X94971428Y-90375057D01*
X94971428Y-90375057D02*
X94971428Y-90565533D01*
X94971428Y-90565533D02*
X94933333Y-90717914D01*
X94933333Y-90717914D02*
X94895238Y-90794104D01*
X94895238Y-90794104D02*
X94857143Y-90832200D01*
X94857143Y-90832200D02*
X94780952Y-90870295D01*
X94780952Y-90870295D02*
X94704762Y-90870295D01*
X94704762Y-90870295D02*
X94628571Y-90832200D01*
X94628571Y-90832200D02*
X94590476Y-90794104D01*
X94590476Y-90794104D02*
X94552381Y-90717914D01*
X94552381Y-90717914D02*
X94514285Y-90565533D01*
X94514285Y-90565533D02*
X94514285Y-90375057D01*
X94514285Y-90375057D02*
X94552381Y-90222676D01*
X94552381Y-90222676D02*
X94590476Y-90146485D01*
X94590476Y-90146485D02*
X94628571Y-90108390D01*
X94628571Y-90108390D02*
X94704762Y-90070295D01*
X95466667Y-90070295D02*
X95542857Y-90070295D01*
X95542857Y-90070295D02*
X95619048Y-90108390D01*
X95619048Y-90108390D02*
X95657143Y-90146485D01*
X95657143Y-90146485D02*
X95695238Y-90222676D01*
X95695238Y-90222676D02*
X95733333Y-90375057D01*
X95733333Y-90375057D02*
X95733333Y-90565533D01*
X95733333Y-90565533D02*
X95695238Y-90717914D01*
X95695238Y-90717914D02*
X95657143Y-90794104D01*
X95657143Y-90794104D02*
X95619048Y-90832200D01*
X95619048Y-90832200D02*
X95542857Y-90870295D01*
X95542857Y-90870295D02*
X95466667Y-90870295D01*
X95466667Y-90870295D02*
X95390476Y-90832200D01*
X95390476Y-90832200D02*
X95352381Y-90794104D01*
X95352381Y-90794104D02*
X95314286Y-90717914D01*
X95314286Y-90717914D02*
X95276190Y-90565533D01*
X95276190Y-90565533D02*
X95276190Y-90375057D01*
X95276190Y-90375057D02*
X95314286Y-90222676D01*
X95314286Y-90222676D02*
X95352381Y-90146485D01*
X95352381Y-90146485D02*
X95390476Y-90108390D01*
X95390476Y-90108390D02*
X95466667Y-90070295D01*
X96495238Y-90870295D02*
X96038095Y-90870295D01*
X96266667Y-90870295D02*
X96266667Y-90070295D01*
X96266667Y-90070295D02*
X96190476Y-90184580D01*
X96190476Y-90184580D02*
X96114286Y-90260771D01*
X96114286Y-90260771D02*
X96038095Y-90298866D01*
X85238095Y-80454819D02*
X85238095Y-81264342D01*
X85238095Y-81264342D02*
X85285714Y-81359580D01*
X85285714Y-81359580D02*
X85333333Y-81407200D01*
X85333333Y-81407200D02*
X85428571Y-81454819D01*
X85428571Y-81454819D02*
X85619047Y-81454819D01*
X85619047Y-81454819D02*
X85714285Y-81407200D01*
X85714285Y-81407200D02*
X85761904Y-81359580D01*
X85761904Y-81359580D02*
X85809523Y-81264342D01*
X85809523Y-81264342D02*
X85809523Y-80454819D01*
X86190476Y-80454819D02*
X86809523Y-80454819D01*
X86809523Y-80454819D02*
X86476190Y-80835771D01*
X86476190Y-80835771D02*
X86619047Y-80835771D01*
X86619047Y-80835771D02*
X86714285Y-80883390D01*
X86714285Y-80883390D02*
X86761904Y-80931009D01*
X86761904Y-80931009D02*
X86809523Y-81026247D01*
X86809523Y-81026247D02*
X86809523Y-81264342D01*
X86809523Y-81264342D02*
X86761904Y-81359580D01*
X86761904Y-81359580D02*
X86714285Y-81407200D01*
X86714285Y-81407200D02*
X86619047Y-81454819D01*
X86619047Y-81454819D02*
X86333333Y-81454819D01*
X86333333Y-81454819D02*
X86238095Y-81407200D01*
X86238095Y-81407200D02*
X86190476Y-81359580D01*
X92454819Y-82857142D02*
X93454819Y-82619047D01*
X93454819Y-82619047D02*
X92740533Y-82428571D01*
X92740533Y-82428571D02*
X93454819Y-82238095D01*
X93454819Y-82238095D02*
X92454819Y-82000000D01*
X92550057Y-81666666D02*
X92502438Y-81619047D01*
X92502438Y-81619047D02*
X92454819Y-81523809D01*
X92454819Y-81523809D02*
X92454819Y-81285714D01*
X92454819Y-81285714D02*
X92502438Y-81190476D01*
X92502438Y-81190476D02*
X92550057Y-81142857D01*
X92550057Y-81142857D02*
X92645295Y-81095238D01*
X92645295Y-81095238D02*
X92740533Y-81095238D01*
X92740533Y-81095238D02*
X92883390Y-81142857D01*
X92883390Y-81142857D02*
X93454819Y-81714285D01*
X93454819Y-81714285D02*
X93454819Y-81095238D01*
X92454819Y-80190476D02*
X92454819Y-80666666D01*
X92454819Y-80666666D02*
X92931009Y-80714285D01*
X92931009Y-80714285D02*
X92883390Y-80666666D01*
X92883390Y-80666666D02*
X92835771Y-80571428D01*
X92835771Y-80571428D02*
X92835771Y-80333333D01*
X92835771Y-80333333D02*
X92883390Y-80238095D01*
X92883390Y-80238095D02*
X92931009Y-80190476D01*
X92931009Y-80190476D02*
X93026247Y-80142857D01*
X93026247Y-80142857D02*
X93264342Y-80142857D01*
X93264342Y-80142857D02*
X93359580Y-80190476D01*
X93359580Y-80190476D02*
X93407200Y-80238095D01*
X93407200Y-80238095D02*
X93454819Y-80333333D01*
X93454819Y-80333333D02*
X93454819Y-80571428D01*
X93454819Y-80571428D02*
X93407200Y-80666666D01*
X93407200Y-80666666D02*
X93359580Y-80714285D01*
X93550057Y-79047619D02*
X93502438Y-79142857D01*
X93502438Y-79142857D02*
X93407200Y-79238095D01*
X93407200Y-79238095D02*
X93264342Y-79380952D01*
X93264342Y-79380952D02*
X93216723Y-79476190D01*
X93216723Y-79476190D02*
X93216723Y-79571428D01*
X93454819Y-79523809D02*
X93407200Y-79619047D01*
X93407200Y-79619047D02*
X93311961Y-79714285D01*
X93311961Y-79714285D02*
X93121485Y-79761904D01*
X93121485Y-79761904D02*
X92788152Y-79761904D01*
X92788152Y-79761904D02*
X92597676Y-79714285D01*
X92597676Y-79714285D02*
X92502438Y-79619047D01*
X92502438Y-79619047D02*
X92454819Y-79523809D01*
X92454819Y-79523809D02*
X92454819Y-79333333D01*
X92454819Y-79333333D02*
X92502438Y-79238095D01*
X92502438Y-79238095D02*
X92597676Y-79142857D01*
X92597676Y-79142857D02*
X92788152Y-79095238D01*
X92788152Y-79095238D02*
X93121485Y-79095238D01*
X93121485Y-79095238D02*
X93311961Y-79142857D01*
X93311961Y-79142857D02*
X93407200Y-79238095D01*
X93407200Y-79238095D02*
X93454819Y-79333333D01*
X93454819Y-79333333D02*
X93454819Y-79523809D01*
X92883390Y-78523809D02*
X92835771Y-78619047D01*
X92835771Y-78619047D02*
X92788152Y-78666666D01*
X92788152Y-78666666D02*
X92692914Y-78714285D01*
X92692914Y-78714285D02*
X92645295Y-78714285D01*
X92645295Y-78714285D02*
X92550057Y-78666666D01*
X92550057Y-78666666D02*
X92502438Y-78619047D01*
X92502438Y-78619047D02*
X92454819Y-78523809D01*
X92454819Y-78523809D02*
X92454819Y-78333333D01*
X92454819Y-78333333D02*
X92502438Y-78238095D01*
X92502438Y-78238095D02*
X92550057Y-78190476D01*
X92550057Y-78190476D02*
X92645295Y-78142857D01*
X92645295Y-78142857D02*
X92692914Y-78142857D01*
X92692914Y-78142857D02*
X92788152Y-78190476D01*
X92788152Y-78190476D02*
X92835771Y-78238095D01*
X92835771Y-78238095D02*
X92883390Y-78333333D01*
X92883390Y-78333333D02*
X92883390Y-78523809D01*
X92883390Y-78523809D02*
X92931009Y-78619047D01*
X92931009Y-78619047D02*
X92978628Y-78666666D01*
X92978628Y-78666666D02*
X93073866Y-78714285D01*
X93073866Y-78714285D02*
X93264342Y-78714285D01*
X93264342Y-78714285D02*
X93359580Y-78666666D01*
X93359580Y-78666666D02*
X93407200Y-78619047D01*
X93407200Y-78619047D02*
X93454819Y-78523809D01*
X93454819Y-78523809D02*
X93454819Y-78333333D01*
X93454819Y-78333333D02*
X93407200Y-78238095D01*
X93407200Y-78238095D02*
X93359580Y-78190476D01*
X93359580Y-78190476D02*
X93264342Y-78142857D01*
X93264342Y-78142857D02*
X93073866Y-78142857D01*
X93073866Y-78142857D02*
X92978628Y-78190476D01*
X92978628Y-78190476D02*
X92931009Y-78238095D01*
X92931009Y-78238095D02*
X92883390Y-78333333D01*
X92454819Y-77523809D02*
X92454819Y-77428571D01*
X92454819Y-77428571D02*
X92502438Y-77333333D01*
X92502438Y-77333333D02*
X92550057Y-77285714D01*
X92550057Y-77285714D02*
X92645295Y-77238095D01*
X92645295Y-77238095D02*
X92835771Y-77190476D01*
X92835771Y-77190476D02*
X93073866Y-77190476D01*
X93073866Y-77190476D02*
X93264342Y-77238095D01*
X93264342Y-77238095D02*
X93359580Y-77285714D01*
X93359580Y-77285714D02*
X93407200Y-77333333D01*
X93407200Y-77333333D02*
X93454819Y-77428571D01*
X93454819Y-77428571D02*
X93454819Y-77523809D01*
X93454819Y-77523809D02*
X93407200Y-77619047D01*
X93407200Y-77619047D02*
X93359580Y-77666666D01*
X93359580Y-77666666D02*
X93264342Y-77714285D01*
X93264342Y-77714285D02*
X93073866Y-77761904D01*
X93073866Y-77761904D02*
X92835771Y-77761904D01*
X92835771Y-77761904D02*
X92645295Y-77714285D01*
X92645295Y-77714285D02*
X92550057Y-77666666D01*
X92550057Y-77666666D02*
X92502438Y-77619047D01*
X92502438Y-77619047D02*
X92454819Y-77523809D01*
X85745180Y-55600000D02*
X85507085Y-55600000D01*
X85602323Y-55361905D02*
X85507085Y-55600000D01*
X85507085Y-55600000D02*
X85602323Y-55838095D01*
X85316609Y-55457143D02*
X85507085Y-55600000D01*
X85507085Y-55600000D02*
X85316609Y-55742857D01*
X85254819Y-54799999D02*
X85492914Y-54799999D01*
X85397676Y-55038094D02*
X85492914Y-54799999D01*
X85492914Y-54799999D02*
X85397676Y-54561904D01*
X85683390Y-54942856D02*
X85492914Y-54799999D01*
X85492914Y-54799999D02*
X85683390Y-54657142D01*
X96438095Y-54454819D02*
X96438095Y-55264342D01*
X96438095Y-55264342D02*
X96485714Y-55359580D01*
X96485714Y-55359580D02*
X96533333Y-55407200D01*
X96533333Y-55407200D02*
X96628571Y-55454819D01*
X96628571Y-55454819D02*
X96819047Y-55454819D01*
X96819047Y-55454819D02*
X96914285Y-55407200D01*
X96914285Y-55407200D02*
X96961904Y-55359580D01*
X96961904Y-55359580D02*
X97009523Y-55264342D01*
X97009523Y-55264342D02*
X97009523Y-54454819D01*
X97628571Y-54883390D02*
X97533333Y-54835771D01*
X97533333Y-54835771D02*
X97485714Y-54788152D01*
X97485714Y-54788152D02*
X97438095Y-54692914D01*
X97438095Y-54692914D02*
X97438095Y-54645295D01*
X97438095Y-54645295D02*
X97485714Y-54550057D01*
X97485714Y-54550057D02*
X97533333Y-54502438D01*
X97533333Y-54502438D02*
X97628571Y-54454819D01*
X97628571Y-54454819D02*
X97819047Y-54454819D01*
X97819047Y-54454819D02*
X97914285Y-54502438D01*
X97914285Y-54502438D02*
X97961904Y-54550057D01*
X97961904Y-54550057D02*
X98009523Y-54645295D01*
X98009523Y-54645295D02*
X98009523Y-54692914D01*
X98009523Y-54692914D02*
X97961904Y-54788152D01*
X97961904Y-54788152D02*
X97914285Y-54835771D01*
X97914285Y-54835771D02*
X97819047Y-54883390D01*
X97819047Y-54883390D02*
X97628571Y-54883390D01*
X97628571Y-54883390D02*
X97533333Y-54931009D01*
X97533333Y-54931009D02*
X97485714Y-54978628D01*
X97485714Y-54978628D02*
X97438095Y-55073866D01*
X97438095Y-55073866D02*
X97438095Y-55264342D01*
X97438095Y-55264342D02*
X97485714Y-55359580D01*
X97485714Y-55359580D02*
X97533333Y-55407200D01*
X97533333Y-55407200D02*
X97628571Y-55454819D01*
X97628571Y-55454819D02*
X97819047Y-55454819D01*
X97819047Y-55454819D02*
X97914285Y-55407200D01*
X97914285Y-55407200D02*
X97961904Y-55359580D01*
X97961904Y-55359580D02*
X98009523Y-55264342D01*
X98009523Y-55264342D02*
X98009523Y-55073866D01*
X98009523Y-55073866D02*
X97961904Y-54978628D01*
X97961904Y-54978628D02*
X97914285Y-54931009D01*
X97914285Y-54931009D02*
X97819047Y-54883390D01*
X85745180Y-54000000D02*
X85507085Y-54000000D01*
X85602323Y-53761905D02*
X85507085Y-54000000D01*
X85507085Y-54000000D02*
X85602323Y-54238095D01*
X85316609Y-53857143D02*
X85507085Y-54000000D01*
X85507085Y-54000000D02*
X85316609Y-54142857D01*
X85254819Y-56399999D02*
X85492914Y-56399999D01*
X85397676Y-56638094D02*
X85492914Y-56399999D01*
X85492914Y-56399999D02*
X85397676Y-56161904D01*
X85683390Y-56542856D02*
X85492914Y-56399999D01*
X85492914Y-56399999D02*
X85683390Y-56257142D01*
X88769819Y-51268333D02*
X89484104Y-51268333D01*
X89484104Y-51268333D02*
X89626961Y-51315952D01*
X89626961Y-51315952D02*
X89722200Y-51411190D01*
X89722200Y-51411190D02*
X89769819Y-51554047D01*
X89769819Y-51554047D02*
X89769819Y-51649285D01*
X88865057Y-50839761D02*
X88817438Y-50792142D01*
X88817438Y-50792142D02*
X88769819Y-50696904D01*
X88769819Y-50696904D02*
X88769819Y-50458809D01*
X88769819Y-50458809D02*
X88817438Y-50363571D01*
X88817438Y-50363571D02*
X88865057Y-50315952D01*
X88865057Y-50315952D02*
X88960295Y-50268333D01*
X88960295Y-50268333D02*
X89055533Y-50268333D01*
X89055533Y-50268333D02*
X89198390Y-50315952D01*
X89198390Y-50315952D02*
X89769819Y-50887380D01*
X89769819Y-50887380D02*
X89769819Y-50268333D01*
X87076976Y-69254819D02*
X87076976Y-68254819D01*
X87076976Y-68254819D02*
X87410309Y-68969104D01*
X87410309Y-68969104D02*
X87743642Y-68254819D01*
X87743642Y-68254819D02*
X87743642Y-69254819D01*
X88743642Y-69254819D02*
X88172214Y-69254819D01*
X88457928Y-69254819D02*
X88457928Y-68254819D01*
X88457928Y-68254819D02*
X88362690Y-68397676D01*
X88362690Y-68397676D02*
X88267452Y-68492914D01*
X88267452Y-68492914D02*
X88172214Y-68540533D01*
X82757143Y-64654819D02*
X82757143Y-63654819D01*
X82757143Y-63654819D02*
X83328571Y-64654819D01*
X83328571Y-64654819D02*
X83328571Y-63654819D01*
X83757143Y-64369104D02*
X84233333Y-64369104D01*
X83661905Y-64654819D02*
X83995238Y-63654819D01*
X83995238Y-63654819D02*
X84328571Y-64654819D01*
X84661905Y-64654819D02*
X84661905Y-63654819D01*
X84661905Y-63654819D02*
X85233333Y-64654819D01*
X85233333Y-64654819D02*
X85233333Y-63654819D01*
X85900000Y-63654819D02*
X86090476Y-63654819D01*
X86090476Y-63654819D02*
X86185714Y-63702438D01*
X86185714Y-63702438D02*
X86280952Y-63797676D01*
X86280952Y-63797676D02*
X86328571Y-63988152D01*
X86328571Y-63988152D02*
X86328571Y-64321485D01*
X86328571Y-64321485D02*
X86280952Y-64511961D01*
X86280952Y-64511961D02*
X86185714Y-64607200D01*
X86185714Y-64607200D02*
X86090476Y-64654819D01*
X86090476Y-64654819D02*
X85900000Y-64654819D01*
X85900000Y-64654819D02*
X85804762Y-64607200D01*
X85804762Y-64607200D02*
X85709524Y-64511961D01*
X85709524Y-64511961D02*
X85661905Y-64321485D01*
X85661905Y-64321485D02*
X85661905Y-63988152D01*
X85661905Y-63988152D02*
X85709524Y-63797676D01*
X85709524Y-63797676D02*
X85804762Y-63702438D01*
X85804762Y-63702438D02*
X85900000Y-63654819D01*
X87471428Y-63607200D02*
X86614286Y-64892914D01*
X88280952Y-64654819D02*
X87804762Y-64654819D01*
X87804762Y-64654819D02*
X87804762Y-63654819D01*
X89138095Y-64654819D02*
X88566667Y-64654819D01*
X88852381Y-64654819D02*
X88852381Y-63654819D01*
X88852381Y-63654819D02*
X88757143Y-63797676D01*
X88757143Y-63797676D02*
X88661905Y-63892914D01*
X88661905Y-63892914D02*
X88566667Y-63940533D01*
X90042857Y-63654819D02*
X89566667Y-63654819D01*
X89566667Y-63654819D02*
X89519048Y-64131009D01*
X89519048Y-64131009D02*
X89566667Y-64083390D01*
X89566667Y-64083390D02*
X89661905Y-64035771D01*
X89661905Y-64035771D02*
X89900000Y-64035771D01*
X89900000Y-64035771D02*
X89995238Y-64083390D01*
X89995238Y-64083390D02*
X90042857Y-64131009D01*
X90042857Y-64131009D02*
X90090476Y-64226247D01*
X90090476Y-64226247D02*
X90090476Y-64464342D01*
X90090476Y-64464342D02*
X90042857Y-64559580D01*
X90042857Y-64559580D02*
X89995238Y-64607200D01*
X89995238Y-64607200D02*
X89900000Y-64654819D01*
X89900000Y-64654819D02*
X89661905Y-64654819D01*
X89661905Y-64654819D02*
X89566667Y-64607200D01*
X89566667Y-64607200D02*
X89519048Y-64559580D01*
X83863723Y-69323935D02*
X83863723Y-68942982D01*
X84092295Y-69400125D02*
X83292295Y-69133458D01*
X83292295Y-69133458D02*
X84092295Y-68866792D01*
X84092295Y-68600125D02*
X83292295Y-68600125D01*
X83292295Y-68600125D02*
X84092295Y-68142982D01*
X84092295Y-68142982D02*
X83292295Y-68142982D01*
X83292295Y-67876316D02*
X83292295Y-67419173D01*
X84092295Y-67647745D02*
X83292295Y-67647745D01*
X85342295Y-71060839D02*
X84542295Y-71060839D01*
X85342295Y-70603696D02*
X84885152Y-70946554D01*
X84542295Y-70603696D02*
X84999438Y-71060839D01*
X84923247Y-70260839D02*
X84923247Y-69994173D01*
X85342295Y-69879887D02*
X85342295Y-70260839D01*
X85342295Y-70260839D02*
X84542295Y-70260839D01*
X84542295Y-70260839D02*
X84542295Y-69879887D01*
X84923247Y-69537029D02*
X84923247Y-69270363D01*
X85342295Y-69156077D02*
X85342295Y-69537029D01*
X85342295Y-69537029D02*
X84542295Y-69537029D01*
X84542295Y-69537029D02*
X84542295Y-69156077D01*
X85342295Y-68813219D02*
X84542295Y-68813219D01*
X84542295Y-68813219D02*
X84542295Y-68508457D01*
X84542295Y-68508457D02*
X84580390Y-68432267D01*
X84580390Y-68432267D02*
X84618485Y-68394172D01*
X84618485Y-68394172D02*
X84694676Y-68356076D01*
X84694676Y-68356076D02*
X84808961Y-68356076D01*
X84808961Y-68356076D02*
X84885152Y-68394172D01*
X84885152Y-68394172D02*
X84923247Y-68432267D01*
X84923247Y-68432267D02*
X84961342Y-68508457D01*
X84961342Y-68508457D02*
X84961342Y-68813219D01*
X84542295Y-67860838D02*
X84542295Y-67708457D01*
X84542295Y-67708457D02*
X84580390Y-67632267D01*
X84580390Y-67632267D02*
X84656580Y-67556076D01*
X84656580Y-67556076D02*
X84808961Y-67517981D01*
X84808961Y-67517981D02*
X85075628Y-67517981D01*
X85075628Y-67517981D02*
X85228009Y-67556076D01*
X85228009Y-67556076D02*
X85304200Y-67632267D01*
X85304200Y-67632267D02*
X85342295Y-67708457D01*
X85342295Y-67708457D02*
X85342295Y-67860838D01*
X85342295Y-67860838D02*
X85304200Y-67937029D01*
X85304200Y-67937029D02*
X85228009Y-68013219D01*
X85228009Y-68013219D02*
X85075628Y-68051315D01*
X85075628Y-68051315D02*
X84808961Y-68051315D01*
X84808961Y-68051315D02*
X84656580Y-68013219D01*
X84656580Y-68013219D02*
X84580390Y-67937029D01*
X84580390Y-67937029D02*
X84542295Y-67860838D01*
X84542295Y-67175124D02*
X85189914Y-67175124D01*
X85189914Y-67175124D02*
X85266104Y-67137029D01*
X85266104Y-67137029D02*
X85304200Y-67098934D01*
X85304200Y-67098934D02*
X85342295Y-67022743D01*
X85342295Y-67022743D02*
X85342295Y-66870362D01*
X85342295Y-66870362D02*
X85304200Y-66794172D01*
X85304200Y-66794172D02*
X85266104Y-66756077D01*
X85266104Y-66756077D02*
X85189914Y-66717981D01*
X85189914Y-66717981D02*
X84542295Y-66717981D01*
X84542295Y-66451315D02*
X84542295Y-65994172D01*
X85342295Y-66222744D02*
X84542295Y-66222744D01*
X98907200Y-80290475D02*
X98954819Y-80147618D01*
X98954819Y-80147618D02*
X98954819Y-79909523D01*
X98954819Y-79909523D02*
X98907200Y-79814285D01*
X98907200Y-79814285D02*
X98859580Y-79766666D01*
X98859580Y-79766666D02*
X98764342Y-79719047D01*
X98764342Y-79719047D02*
X98669104Y-79719047D01*
X98669104Y-79719047D02*
X98573866Y-79766666D01*
X98573866Y-79766666D02*
X98526247Y-79814285D01*
X98526247Y-79814285D02*
X98478628Y-79909523D01*
X98478628Y-79909523D02*
X98431009Y-80099999D01*
X98431009Y-80099999D02*
X98383390Y-80195237D01*
X98383390Y-80195237D02*
X98335771Y-80242856D01*
X98335771Y-80242856D02*
X98240533Y-80290475D01*
X98240533Y-80290475D02*
X98145295Y-80290475D01*
X98145295Y-80290475D02*
X98050057Y-80242856D01*
X98050057Y-80242856D02*
X98002438Y-80195237D01*
X98002438Y-80195237D02*
X97954819Y-80099999D01*
X97954819Y-80099999D02*
X97954819Y-79861904D01*
X97954819Y-79861904D02*
X98002438Y-79719047D01*
X98954819Y-79290475D02*
X97954819Y-79290475D01*
X97954819Y-79290475D02*
X97954819Y-78909523D01*
X97954819Y-78909523D02*
X98002438Y-78814285D01*
X98002438Y-78814285D02*
X98050057Y-78766666D01*
X98050057Y-78766666D02*
X98145295Y-78719047D01*
X98145295Y-78719047D02*
X98288152Y-78719047D01*
X98288152Y-78719047D02*
X98383390Y-78766666D01*
X98383390Y-78766666D02*
X98431009Y-78814285D01*
X98431009Y-78814285D02*
X98478628Y-78909523D01*
X98478628Y-78909523D02*
X98478628Y-79290475D01*
X97954819Y-78099999D02*
X97954819Y-78004761D01*
X97954819Y-78004761D02*
X98002438Y-77909523D01*
X98002438Y-77909523D02*
X98050057Y-77861904D01*
X98050057Y-77861904D02*
X98145295Y-77814285D01*
X98145295Y-77814285D02*
X98335771Y-77766666D01*
X98335771Y-77766666D02*
X98573866Y-77766666D01*
X98573866Y-77766666D02*
X98764342Y-77814285D01*
X98764342Y-77814285D02*
X98859580Y-77861904D01*
X98859580Y-77861904D02*
X98907200Y-77909523D01*
X98907200Y-77909523D02*
X98954819Y-78004761D01*
X98954819Y-78004761D02*
X98954819Y-78099999D01*
X98954819Y-78099999D02*
X98907200Y-78195237D01*
X98907200Y-78195237D02*
X98859580Y-78242856D01*
X98859580Y-78242856D02*
X98764342Y-78290475D01*
X98764342Y-78290475D02*
X98573866Y-78338094D01*
X98573866Y-78338094D02*
X98335771Y-78338094D01*
X98335771Y-78338094D02*
X98145295Y-78290475D01*
X98145295Y-78290475D02*
X98050057Y-78242856D01*
X98050057Y-78242856D02*
X98002438Y-78195237D01*
X98002438Y-78195237D02*
X97954819Y-78099999D01*
X97954819Y-76861904D02*
X97954819Y-77338094D01*
X97954819Y-77338094D02*
X98431009Y-77385713D01*
X98431009Y-77385713D02*
X98383390Y-77338094D01*
X98383390Y-77338094D02*
X98335771Y-77242856D01*
X98335771Y-77242856D02*
X98335771Y-77004761D01*
X98335771Y-77004761D02*
X98383390Y-76909523D01*
X98383390Y-76909523D02*
X98431009Y-76861904D01*
X98431009Y-76861904D02*
X98526247Y-76814285D01*
X98526247Y-76814285D02*
X98764342Y-76814285D01*
X98764342Y-76814285D02*
X98859580Y-76861904D01*
X98859580Y-76861904D02*
X98907200Y-76909523D01*
X98907200Y-76909523D02*
X98954819Y-77004761D01*
X98954819Y-77004761D02*
X98954819Y-77242856D01*
X98954819Y-77242856D02*
X98907200Y-77338094D01*
X98907200Y-77338094D02*
X98859580Y-77385713D01*
X97954819Y-76195237D02*
X97954819Y-76099999D01*
X97954819Y-76099999D02*
X98002438Y-76004761D01*
X98002438Y-76004761D02*
X98050057Y-75957142D01*
X98050057Y-75957142D02*
X98145295Y-75909523D01*
X98145295Y-75909523D02*
X98335771Y-75861904D01*
X98335771Y-75861904D02*
X98573866Y-75861904D01*
X98573866Y-75861904D02*
X98764342Y-75909523D01*
X98764342Y-75909523D02*
X98859580Y-75957142D01*
X98859580Y-75957142D02*
X98907200Y-76004761D01*
X98907200Y-76004761D02*
X98954819Y-76099999D01*
X98954819Y-76099999D02*
X98954819Y-76195237D01*
X98954819Y-76195237D02*
X98907200Y-76290475D01*
X98907200Y-76290475D02*
X98859580Y-76338094D01*
X98859580Y-76338094D02*
X98764342Y-76385713D01*
X98764342Y-76385713D02*
X98573866Y-76433332D01*
X98573866Y-76433332D02*
X98335771Y-76433332D01*
X98335771Y-76433332D02*
X98145295Y-76385713D01*
X98145295Y-76385713D02*
X98050057Y-76338094D01*
X98050057Y-76338094D02*
X98002438Y-76290475D01*
X98002438Y-76290475D02*
X97954819Y-76195237D01*
X98050057Y-75480951D02*
X98002438Y-75433332D01*
X98002438Y-75433332D02*
X97954819Y-75338094D01*
X97954819Y-75338094D02*
X97954819Y-75099999D01*
X97954819Y-75099999D02*
X98002438Y-75004761D01*
X98002438Y-75004761D02*
X98050057Y-74957142D01*
X98050057Y-74957142D02*
X98145295Y-74909523D01*
X98145295Y-74909523D02*
X98240533Y-74909523D01*
X98240533Y-74909523D02*
X98383390Y-74957142D01*
X98383390Y-74957142D02*
X98954819Y-75528570D01*
X98954819Y-75528570D02*
X98954819Y-74909523D01*
X121316666Y-66454819D02*
X121316666Y-67169104D01*
X121316666Y-67169104D02*
X121269047Y-67311961D01*
X121269047Y-67311961D02*
X121173809Y-67407200D01*
X121173809Y-67407200D02*
X121030952Y-67454819D01*
X121030952Y-67454819D02*
X120935714Y-67454819D01*
X122269047Y-66454819D02*
X121792857Y-66454819D01*
X121792857Y-66454819D02*
X121745238Y-66931009D01*
X121745238Y-66931009D02*
X121792857Y-66883390D01*
X121792857Y-66883390D02*
X121888095Y-66835771D01*
X121888095Y-66835771D02*
X122126190Y-66835771D01*
X122126190Y-66835771D02*
X122221428Y-66883390D01*
X122221428Y-66883390D02*
X122269047Y-66931009D01*
X122269047Y-66931009D02*
X122316666Y-67026247D01*
X122316666Y-67026247D02*
X122316666Y-67264342D01*
X122316666Y-67264342D02*
X122269047Y-67359580D01*
X122269047Y-67359580D02*
X122221428Y-67407200D01*
X122221428Y-67407200D02*
X122126190Y-67454819D01*
X122126190Y-67454819D02*
X121888095Y-67454819D01*
X121888095Y-67454819D02*
X121792857Y-67407200D01*
X121792857Y-67407200D02*
X121745238Y-67359580D01*
X117866667Y-74207200D02*
X118009524Y-74254819D01*
X118009524Y-74254819D02*
X118247619Y-74254819D01*
X118247619Y-74254819D02*
X118342857Y-74207200D01*
X118342857Y-74207200D02*
X118390476Y-74159580D01*
X118390476Y-74159580D02*
X118438095Y-74064342D01*
X118438095Y-74064342D02*
X118438095Y-73969104D01*
X118438095Y-73969104D02*
X118390476Y-73873866D01*
X118390476Y-73873866D02*
X118342857Y-73826247D01*
X118342857Y-73826247D02*
X118247619Y-73778628D01*
X118247619Y-73778628D02*
X118057143Y-73731009D01*
X118057143Y-73731009D02*
X117961905Y-73683390D01*
X117961905Y-73683390D02*
X117914286Y-73635771D01*
X117914286Y-73635771D02*
X117866667Y-73540533D01*
X117866667Y-73540533D02*
X117866667Y-73445295D01*
X117866667Y-73445295D02*
X117914286Y-73350057D01*
X117914286Y-73350057D02*
X117961905Y-73302438D01*
X117961905Y-73302438D02*
X118057143Y-73254819D01*
X118057143Y-73254819D02*
X118295238Y-73254819D01*
X118295238Y-73254819D02*
X118438095Y-73302438D01*
X118771429Y-73254819D02*
X119009524Y-74254819D01*
X119009524Y-74254819D02*
X119200000Y-73540533D01*
X119200000Y-73540533D02*
X119390476Y-74254819D01*
X119390476Y-74254819D02*
X119628572Y-73254819D01*
X119914286Y-73254819D02*
X120533333Y-73254819D01*
X120533333Y-73254819D02*
X120200000Y-73635771D01*
X120200000Y-73635771D02*
X120342857Y-73635771D01*
X120342857Y-73635771D02*
X120438095Y-73683390D01*
X120438095Y-73683390D02*
X120485714Y-73731009D01*
X120485714Y-73731009D02*
X120533333Y-73826247D01*
X120533333Y-73826247D02*
X120533333Y-74064342D01*
X120533333Y-74064342D02*
X120485714Y-74159580D01*
X120485714Y-74159580D02*
X120438095Y-74207200D01*
X120438095Y-74207200D02*
X120342857Y-74254819D01*
X120342857Y-74254819D02*
X120057143Y-74254819D01*
X120057143Y-74254819D02*
X119961905Y-74207200D01*
X119961905Y-74207200D02*
X119914286Y-74159580D01*
%TO.C,SW4*%
D13*
X121450000Y-79450000D02*
X122450000Y-79450000D01*
X121450000Y-80050000D02*
X121450000Y-79450000D01*
X121450000Y-83650000D02*
X121450000Y-84250000D01*
X121450000Y-84250000D02*
X122450000Y-84250000D01*
X124250000Y-82850000D02*
X124250000Y-80850000D01*
%TO.C,C7*%
X91140000Y-60372164D02*
X91140000Y-60587836D01*
X91860000Y-60372164D02*
X91860000Y-60587836D01*
%TO.C,C16*%
X97491233Y-73490000D02*
X97783767Y-73490000D01*
X97491233Y-74510000D02*
X97783767Y-74510000D01*
%TO.C,SW2*%
X121450000Y-55750000D02*
X122450000Y-55750000D01*
X121450000Y-56350000D02*
X121450000Y-55750000D01*
X121450000Y-59950000D02*
X121450000Y-60550000D01*
X121450000Y-60550000D02*
X122450000Y-60550000D01*
X124250000Y-59150000D02*
X124250000Y-57150000D01*
%TO.C,C9*%
X86040000Y-74372164D02*
X86040000Y-74587836D01*
X86760000Y-74372164D02*
X86760000Y-74587836D01*
%TO.C,R4*%
X95663641Y-69420000D02*
X95356359Y-69420000D01*
X95663641Y-70180000D02*
X95356359Y-70180000D01*
%TO.C,R3*%
X95163642Y-54620000D02*
X94856360Y-54620000D01*
X95163642Y-55380000D02*
X94856360Y-55380000D01*
%TO.C,U5*%
D14*
X105750000Y-64045000D02*
X105750000Y-64340000D01*
X105750000Y-68750000D02*
X105750000Y-69045000D01*
X105750000Y-69045000D02*
X106045000Y-69045000D01*
X106045000Y-64045000D02*
X105750000Y-64045000D01*
X110455000Y-69045000D02*
X110750000Y-69045000D01*
X110750000Y-64045000D02*
X110455000Y-64045000D01*
X110750000Y-64340000D02*
X110750000Y-64045000D01*
X110750000Y-69045000D02*
X110750000Y-68750000D01*
D11*
X110100000Y-63195000D02*
G75*
G02*
X109900000Y-63195000I-100000J0D01*
G01*
X109900000Y-63195000D02*
G75*
G02*
X110100000Y-63195000I100000J0D01*
G01*
%TO.C,U7*%
D14*
X93000000Y-87401000D02*
X95000000Y-87401000D01*
X93000000Y-89599000D02*
X95000000Y-89599000D01*
D11*
X92165000Y-87850000D02*
G75*
G02*
X91965000Y-87850000I-100000J0D01*
G01*
X91965000Y-87850000D02*
G75*
G02*
X92165000Y-87850000I100000J0D01*
G01*
%TO.C,C10*%
D13*
X107115580Y-71035000D02*
X106834420Y-71035000D01*
X107115580Y-72055000D02*
X106834420Y-72055000D01*
%TO.C,U3*%
D15*
X86952000Y-75715300D02*
X86952000Y-79957100D01*
X92209800Y-79957100D02*
X92209800Y-75715300D01*
%TO.C,C15*%
D13*
X111740000Y-66179420D02*
X111740000Y-66460580D01*
X112760000Y-66179420D02*
X112760000Y-66460580D01*
%TO.C,U8*%
D15*
X92878400Y-56413900D02*
X92878400Y-57079761D01*
X92878400Y-58999239D02*
X92878400Y-59665100D01*
X95621600Y-57079761D02*
X95621600Y-56413900D01*
X95621600Y-59665100D02*
X95621600Y-58999239D01*
D16*
G36*
X94690500Y-60452500D02*
G01*
X94309499Y-60452500D01*
X94309499Y-60198500D01*
X94690500Y-60198500D01*
X94690500Y-60452500D01*
G37*
%TO.C,C5*%
D13*
X119140000Y-80587836D02*
X119140000Y-80372164D01*
X119860000Y-80587836D02*
X119860000Y-80372164D01*
%TO.C,C13*%
X110884420Y-70035000D02*
X111165580Y-70035000D01*
X110884420Y-71055000D02*
X111165580Y-71055000D01*
%TO.C,R5*%
X95673641Y-70920000D02*
X95366359Y-70920000D01*
X95673641Y-71680000D02*
X95366359Y-71680000D01*
%TO.C,L2*%
X106287878Y-61985000D02*
X107087122Y-61985000D01*
X106287878Y-63105000D02*
X107087122Y-63105000D01*
%TO.C,J2*%
X87500000Y-48985000D02*
X87500000Y-48920000D01*
X87500000Y-52950000D02*
X87500000Y-52885000D01*
X91130000Y-48920000D02*
X87500000Y-48920000D01*
X91130000Y-48985000D02*
X91130000Y-48920000D01*
X91130000Y-52950000D02*
X87500000Y-52950000D01*
X91130000Y-52950000D02*
X91130000Y-52885000D01*
X92405000Y-52885000D02*
X91130000Y-52885000D01*
D16*
%TO.C,G\u002A\u002A\u002A*%
G36*
X112003541Y-86979880D02*
G01*
X112084625Y-86987251D01*
X112144053Y-86999182D01*
X112168571Y-87011428D01*
X112194732Y-87058875D01*
X112198454Y-87114813D01*
X112180460Y-87162506D01*
X112161314Y-87179296D01*
X112123658Y-87188389D01*
X112056929Y-87194658D01*
X111971575Y-87198123D01*
X111878041Y-87198800D01*
X111786775Y-87196707D01*
X111708223Y-87191862D01*
X111652831Y-87184284D01*
X111635000Y-87178398D01*
X111607938Y-87142336D01*
X111601054Y-87088807D01*
X111614717Y-87035093D01*
X111631428Y-87011428D01*
X111667302Y-86995999D01*
X111732682Y-86985129D01*
X111817337Y-86978819D01*
X111911034Y-86977070D01*
X112003541Y-86979880D01*
G37*
G36*
X112017318Y-87321807D02*
G01*
X112100282Y-87328452D01*
X112154423Y-87341763D01*
X112185272Y-87363572D01*
X112198363Y-87395709D01*
X112200000Y-87419275D01*
X112195757Y-87466106D01*
X112179216Y-87499180D01*
X112144650Y-87520799D01*
X112086337Y-87533266D01*
X111998553Y-87538886D01*
X111900000Y-87540000D01*
X111792620Y-87538913D01*
X111718257Y-87535114D01*
X111669975Y-87527790D01*
X111640835Y-87516129D01*
X111631428Y-87508571D01*
X111605267Y-87461124D01*
X111601545Y-87405186D01*
X111619539Y-87357493D01*
X111638685Y-87340703D01*
X111673806Y-87332278D01*
X111738929Y-87325505D01*
X111824063Y-87321174D01*
X111900000Y-87320000D01*
X112017318Y-87321807D01*
G37*
G36*
X111981592Y-87660186D02*
G01*
X112066374Y-87664223D01*
X112133005Y-87671193D01*
X112171811Y-87681097D01*
X112175999Y-87683999D01*
X112197321Y-87729985D01*
X112195170Y-87788049D01*
X112171027Y-87839008D01*
X112163425Y-87846900D01*
X112139312Y-87861857D01*
X112101388Y-87871699D01*
X112042194Y-87877352D01*
X111954274Y-87879740D01*
X111896524Y-87880000D01*
X111794349Y-87879177D01*
X111724456Y-87875996D01*
X111679148Y-87869388D01*
X111650728Y-87858285D01*
X111633099Y-87843425D01*
X111606144Y-87791605D01*
X111602245Y-87732800D01*
X111622464Y-87685595D01*
X111624000Y-87684000D01*
X111654429Y-87673370D01*
X111715077Y-87665675D01*
X111796269Y-87660912D01*
X111888332Y-87659082D01*
X111981592Y-87660186D01*
G37*
G36*
X110960463Y-87072961D02*
G01*
X111005799Y-87111546D01*
X111016964Y-87131325D01*
X111024342Y-87165367D01*
X111030243Y-87232716D01*
X111034713Y-87334747D01*
X111037796Y-87472835D01*
X111039539Y-87648356D01*
X111040000Y-87828514D01*
X111040000Y-88475147D01*
X111100803Y-88500332D01*
X111178386Y-88551137D01*
X111248088Y-88630237D01*
X111302585Y-88725932D01*
X111334554Y-88826521D01*
X111339888Y-88882320D01*
X111320815Y-88997024D01*
X111268722Y-89105378D01*
X111190486Y-89198218D01*
X111092989Y-89266382D01*
X111033846Y-89289974D01*
X110949929Y-89311534D01*
X110885635Y-89317233D01*
X110823910Y-89307169D01*
X110774959Y-89291464D01*
X110655785Y-89229868D01*
X110565001Y-89142336D01*
X110505609Y-89033039D01*
X110480614Y-88906150D01*
X110480000Y-88881708D01*
X110498219Y-88758187D01*
X110549385Y-88646127D01*
X110628258Y-88553661D01*
X110729599Y-88488918D01*
X110734395Y-88486874D01*
X110800000Y-88459463D01*
X110800000Y-87821033D01*
X110800577Y-87662840D01*
X110802213Y-87515833D01*
X110804764Y-87385247D01*
X110808087Y-87276316D01*
X110812039Y-87194273D01*
X110816475Y-87144353D01*
X110818854Y-87133013D01*
X110854810Y-87083798D01*
X110906073Y-87063746D01*
X110960463Y-87072961D01*
G37*
G36*
X111053298Y-86178534D02*
G01*
X111167517Y-86229933D01*
X111271687Y-86307890D01*
X111356737Y-86406098D01*
X111398466Y-86480000D01*
X111408906Y-86504923D01*
X111417402Y-86531668D01*
X111424162Y-86564448D01*
X111429392Y-86607477D01*
X111433301Y-86664967D01*
X111436095Y-86741131D01*
X111437981Y-86840182D01*
X111439167Y-86966334D01*
X111439861Y-87123798D01*
X111440269Y-87316789D01*
X111440289Y-87330000D01*
X111441457Y-88090000D01*
X111514488Y-88145420D01*
X111591921Y-88217765D01*
X111671274Y-88314652D01*
X111742616Y-88422422D01*
X111796014Y-88527413D01*
X111800719Y-88539112D01*
X111832917Y-88653497D01*
X111852070Y-88788228D01*
X111856945Y-88926188D01*
X111846307Y-89050260D01*
X111839892Y-89082272D01*
X111778719Y-89260586D01*
X111686168Y-89420736D01*
X111566869Y-89559533D01*
X111425452Y-89673785D01*
X111266545Y-89760301D01*
X111094779Y-89815890D01*
X110914782Y-89837363D01*
X110760000Y-89826603D01*
X110622291Y-89790396D01*
X110478675Y-89728088D01*
X110342528Y-89647008D01*
X110227225Y-89554482D01*
X110187289Y-89512892D01*
X110103655Y-89395359D01*
X110034256Y-89255839D01*
X109982738Y-89105650D01*
X109952750Y-88956108D01*
X109950089Y-88880000D01*
X110190000Y-88880000D01*
X110190708Y-88975904D01*
X110194447Y-89043679D01*
X110203633Y-89095191D01*
X110220684Y-89142306D01*
X110248017Y-89196889D01*
X110258542Y-89216418D01*
X110357325Y-89360008D01*
X110478796Y-89472495D01*
X110618615Y-89552263D01*
X110772445Y-89597698D01*
X110935947Y-89607186D01*
X111104782Y-89579111D01*
X111173220Y-89556859D01*
X111315675Y-89483255D01*
X111436805Y-89378924D01*
X111532710Y-89249148D01*
X111599488Y-89099206D01*
X111633235Y-88934378D01*
X111633239Y-88934335D01*
X111629049Y-88778228D01*
X111590137Y-88625237D01*
X111520384Y-88483633D01*
X111423673Y-88361691D01*
X111327259Y-88282358D01*
X111230000Y-88217954D01*
X111220000Y-87400413D01*
X111217450Y-87197811D01*
X111215081Y-87031345D01*
X111212666Y-86897152D01*
X111209977Y-86791371D01*
X111206788Y-86710139D01*
X111202873Y-86649593D01*
X111198004Y-86605872D01*
X111191955Y-86575114D01*
X111184498Y-86553455D01*
X111175409Y-86537035D01*
X111168764Y-86527671D01*
X111096694Y-86449678D01*
X111019151Y-86406294D01*
X110926685Y-86392327D01*
X110922438Y-86392307D01*
X110819177Y-86407049D01*
X110738326Y-86453373D01*
X110679119Y-86526086D01*
X110669322Y-86543962D01*
X110661316Y-86564966D01*
X110654920Y-86593063D01*
X110649955Y-86632222D01*
X110646239Y-86686411D01*
X110643592Y-86759596D01*
X110641834Y-86855744D01*
X110640784Y-86978824D01*
X110640261Y-87132802D01*
X110640086Y-87321646D01*
X110640074Y-87384385D01*
X110640000Y-88178770D01*
X110535000Y-88246127D01*
X110411069Y-88342374D01*
X110307091Y-88456307D01*
X110232968Y-88577072D01*
X110232746Y-88577551D01*
X110212136Y-88629790D01*
X110199208Y-88685933D01*
X110192377Y-88757188D01*
X110190061Y-88854765D01*
X110190000Y-88880000D01*
X109950089Y-88880000D01*
X109947939Y-88818531D01*
X109951804Y-88782282D01*
X109995260Y-88595840D01*
X110067322Y-88424898D01*
X110164435Y-88275913D01*
X110283047Y-88155341D01*
X110307293Y-88136494D01*
X110396869Y-88070000D01*
X110403434Y-87310000D01*
X110410000Y-86550000D01*
X110470000Y-86441588D01*
X110554350Y-86327703D01*
X110663606Y-86239810D01*
X110790231Y-86182443D01*
X110926690Y-86160134D01*
X110938106Y-86159999D01*
X111053298Y-86178534D01*
G37*
%TO.C,TP3*%
D13*
X95200000Y-84000000D02*
G75*
G02*
X93800000Y-84000000I-700000J0D01*
G01*
X93800000Y-84000000D02*
G75*
G02*
X95200000Y-84000000I700000J0D01*
G01*
%TO.C,M1*%
D17*
X82700000Y-65300000D02*
X92900000Y-65300000D01*
X82700000Y-72300000D02*
X82700000Y-65300000D01*
X82700000Y-72300000D02*
X92900000Y-72300000D01*
X85800000Y-72300000D02*
X85800000Y-65300000D01*
X92900000Y-72300000D02*
X92900000Y-65300000D01*
%TO.C,TP2*%
D13*
X97700000Y-84000000D02*
G75*
G02*
X96300000Y-84000000I-700000J0D01*
G01*
X96300000Y-84000000D02*
G75*
G02*
X97700000Y-84000000I700000J0D01*
G01*
%TO.C,D1*%
X94440000Y-76740000D02*
X94490000Y-76740000D01*
X94440000Y-78260000D02*
X94440000Y-76740000D01*
X95440000Y-78260000D02*
X94440000Y-78260000D01*
X95610000Y-76740000D02*
X96390000Y-76740000D01*
X97510000Y-76740000D02*
X97560000Y-76740000D01*
X97560000Y-76740000D02*
X97560000Y-78260000D01*
X97560000Y-78260000D02*
X96560000Y-78260000D01*
X96380000Y-76200000D02*
X96050000Y-76440000D01*
X96050000Y-75960000D01*
X96380000Y-76200000D01*
G36*
X96380000Y-76200000D02*
G01*
X96050000Y-76440000D01*
X96050000Y-75960000D01*
X96380000Y-76200000D01*
G37*
%TO.C,R6*%
X92700900Y-76026041D02*
X92700900Y-75718759D01*
X93460900Y-76026041D02*
X93460900Y-75718759D01*
%TO.C,C2*%
X94146267Y-73490000D02*
X93853733Y-73490000D01*
X94146267Y-74510000D02*
X93853733Y-74510000D01*
%TO.C,C4*%
X119140000Y-59607836D02*
X119140000Y-59392164D01*
X119860000Y-59607836D02*
X119860000Y-59392164D01*
%TO.C,C6*%
X119140000Y-75607836D02*
X119140000Y-75392164D01*
X119860000Y-75607836D02*
X119860000Y-75392164D01*
%TO.C,C12*%
X91357836Y-82012400D02*
X91142164Y-82012400D01*
X91357836Y-82732400D02*
X91142164Y-82732400D01*
%TO.C,J5*%
X116840000Y-61940000D02*
X116840000Y-62960000D01*
X116840000Y-62960000D02*
X118440000Y-62960000D01*
X116840000Y-71040000D02*
X118440000Y-71040000D01*
X116840000Y-72060000D02*
X116840000Y-71040000D01*
X118440000Y-62960000D02*
X118440000Y-64240000D01*
X118440000Y-69760000D02*
X115550000Y-69760000D01*
X118440000Y-71040000D02*
X118440000Y-69760000D01*
X121090000Y-61940000D02*
X116840000Y-61940000D01*
X121090000Y-72060000D02*
X116840000Y-72060000D01*
X124660000Y-70340000D02*
X124660000Y-63660000D01*
%TO.C,L1*%
X111149622Y-61985000D02*
X110350378Y-61985000D01*
X111149622Y-63105000D02*
X110350378Y-63105000D01*
%TO.C,C1*%
X93890000Y-65415580D02*
X93890000Y-65134420D01*
X94910000Y-65415580D02*
X94910000Y-65134420D01*
%TO.C,C11*%
X103765000Y-65185580D02*
X103765000Y-64904420D01*
X104785000Y-65185580D02*
X104785000Y-64904420D01*
%TO.C,C8*%
X90640001Y-55872164D02*
X90640001Y-56087836D01*
X91360001Y-55872164D02*
X91360001Y-56087836D01*
%TO.C,C14*%
X86640000Y-88242164D02*
X86640000Y-88457836D01*
X87360000Y-88242164D02*
X87360000Y-88457836D01*
D16*
%TO.C,G\u002A\u002A\u002A*%
G36*
X97900000Y-50039002D02*
G01*
X97896255Y-50085737D01*
X97887039Y-50109493D01*
X97885000Y-50110221D01*
X97724485Y-50114738D01*
X97601577Y-50115555D01*
X97514047Y-50112601D01*
X97459666Y-50105802D01*
X97436732Y-50095782D01*
X97423523Y-50058169D01*
X97423464Y-50025727D01*
X97427979Y-50006063D01*
X97439527Y-49992745D01*
X97465031Y-49984288D01*
X97511413Y-49979208D01*
X97585596Y-49976022D01*
X97665000Y-49973951D01*
X97900000Y-49968311D01*
X97900000Y-50039002D01*
G37*
G36*
X102915535Y-49309460D02*
G01*
X103069315Y-49310592D01*
X103205653Y-49312366D01*
X103320040Y-49314692D01*
X103407969Y-49317477D01*
X103464935Y-49320629D01*
X103486428Y-49324058D01*
X103486438Y-49324074D01*
X103489781Y-49352581D01*
X103485812Y-49401009D01*
X103485427Y-49403600D01*
X103475617Y-49468116D01*
X103192808Y-49473656D01*
X102910000Y-49479196D01*
X102905986Y-50029629D01*
X102901972Y-50580063D01*
X102741304Y-50585871D01*
X102580635Y-50591679D01*
X102575317Y-50035437D01*
X102570000Y-49479196D01*
X102295000Y-49473627D01*
X102020000Y-49468058D01*
X102020000Y-49388560D01*
X102020000Y-49309062D01*
X102748819Y-49309062D01*
X102915535Y-49309460D01*
G37*
G36*
X97048021Y-48588108D02*
G01*
X97060000Y-48604658D01*
X97076588Y-48621835D01*
X97118327Y-48645990D01*
X97139519Y-48655934D01*
X97231277Y-48714921D01*
X97293846Y-48799602D01*
X97321309Y-48873582D01*
X97334768Y-48990636D01*
X97313403Y-49097158D01*
X97262001Y-49188183D01*
X97185349Y-49258748D01*
X97088235Y-49303891D01*
X96975445Y-49318647D01*
X96900000Y-49310410D01*
X96806037Y-49281396D01*
X96734958Y-49232065D01*
X96692957Y-49183694D01*
X96646341Y-49091770D01*
X96627977Y-48986164D01*
X96637515Y-48879095D01*
X96674605Y-48782784D01*
X96705685Y-48739865D01*
X96753659Y-48697821D01*
X96816329Y-48658257D01*
X96885397Y-48624337D01*
X96952567Y-48599228D01*
X97009540Y-48586096D01*
X97048021Y-48588108D01*
G37*
G36*
X96980211Y-49463225D02*
G01*
X96990311Y-49487123D01*
X97008906Y-49542577D01*
X97033787Y-49622570D01*
X97062743Y-49720086D01*
X97079829Y-49779432D01*
X97112410Y-49892384D01*
X97144253Y-50000176D01*
X97172417Y-50093025D01*
X97193958Y-50161144D01*
X97200226Y-50179747D01*
X97224121Y-50250772D01*
X97250352Y-50332670D01*
X97275986Y-50415747D01*
X97298092Y-50490313D01*
X97313736Y-50546675D01*
X97319986Y-50575140D01*
X97320000Y-50575623D01*
X97301083Y-50580364D01*
X97248661Y-50584452D01*
X97169229Y-50587610D01*
X97069280Y-50589562D01*
X96980000Y-50590070D01*
X96855314Y-50589724D01*
X96765155Y-50588325D01*
X96704052Y-50585331D01*
X96666537Y-50580203D01*
X96647139Y-50572401D01*
X96640387Y-50561382D01*
X96640000Y-50556464D01*
X96646095Y-50513943D01*
X96660221Y-50461389D01*
X96732201Y-50237741D01*
X96804296Y-50004907D01*
X96870448Y-49782585D01*
X96891976Y-49707744D01*
X96919888Y-49614144D01*
X96945118Y-49537843D01*
X96965326Y-49485322D01*
X96978173Y-49463066D01*
X96980211Y-49463225D01*
G37*
G36*
X99764390Y-49461433D02*
G01*
X99821465Y-49543771D01*
X99879342Y-49627251D01*
X99927646Y-49696910D01*
X99937855Y-49711630D01*
X99986814Y-49770750D01*
X100031635Y-49804483D01*
X100066465Y-49809648D01*
X100083333Y-49790712D01*
X100097013Y-49768597D01*
X100130054Y-49720618D01*
X100178011Y-49653081D01*
X100236440Y-49572292D01*
X100259668Y-49540515D01*
X100429336Y-49309062D01*
X100544668Y-49309062D01*
X100606560Y-49311086D01*
X100648421Y-49316328D01*
X100660000Y-49321932D01*
X100648762Y-49341471D01*
X100617668Y-49387709D01*
X100570644Y-49455160D01*
X100511613Y-49538335D01*
X100444504Y-49631748D01*
X100373241Y-49729911D01*
X100301751Y-49827336D01*
X100233959Y-49918536D01*
X100217373Y-49940619D01*
X100141215Y-50041758D01*
X100135607Y-50310910D01*
X100130000Y-50580063D01*
X99975000Y-50585908D01*
X99820000Y-50591754D01*
X99820000Y-50318376D01*
X99820000Y-50044997D01*
X99570000Y-49687794D01*
X99496884Y-49582853D01*
X99432204Y-49489115D01*
X99379273Y-49411457D01*
X99341404Y-49354755D01*
X99321911Y-49323887D01*
X99320000Y-49319826D01*
X99338464Y-49314954D01*
X99387726Y-49311231D01*
X99458585Y-49309241D01*
X99489390Y-49309062D01*
X99658781Y-49309062D01*
X99764390Y-49461433D01*
G37*
G36*
X101588496Y-49279206D02*
G01*
X101672694Y-49292506D01*
X101800000Y-49315981D01*
X101800000Y-49413949D01*
X101798645Y-49471863D01*
X101791448Y-49498498D01*
X101773702Y-49502588D01*
X101755000Y-49497525D01*
X101601891Y-49454311D01*
X101477651Y-49432695D01*
X101377605Y-49432462D01*
X101297079Y-49453401D01*
X101257957Y-49474838D01*
X101204004Y-49528040D01*
X101182068Y-49588601D01*
X101194376Y-49647547D01*
X101209795Y-49669119D01*
X101239725Y-49691424D01*
X101297800Y-49726172D01*
X101375950Y-49768803D01*
X101466107Y-49814756D01*
X101476294Y-49819760D01*
X101614739Y-49889831D01*
X101720107Y-49949770D01*
X101796661Y-50003804D01*
X101848663Y-50056157D01*
X101880375Y-50111055D01*
X101896060Y-50172724D01*
X101900000Y-50239795D01*
X101882678Y-50352114D01*
X101830573Y-50445424D01*
X101743477Y-50519912D01*
X101621183Y-50575766D01*
X101491664Y-50608318D01*
X101324243Y-50626280D01*
X101160509Y-50620183D01*
X101090000Y-50608938D01*
X101015521Y-50597374D01*
X100941140Y-50591366D01*
X100935000Y-50591224D01*
X100860000Y-50590070D01*
X100860000Y-50481381D01*
X100860000Y-50372692D01*
X100925000Y-50393253D01*
X101055130Y-50427743D01*
X101182200Y-50449357D01*
X101295222Y-50456777D01*
X101383207Y-50448689D01*
X101384875Y-50448304D01*
X101472639Y-50414167D01*
X101534422Y-50362753D01*
X101566815Y-50300343D01*
X101566410Y-50233213D01*
X101534367Y-50172955D01*
X101508449Y-50153938D01*
X101454330Y-50122014D01*
X101379868Y-50081601D01*
X101292923Y-50037116D01*
X101290975Y-50036147D01*
X101146545Y-49960853D01*
X101036310Y-49894274D01*
X100956431Y-49832729D01*
X100903069Y-49772539D01*
X100872386Y-49710021D01*
X100860542Y-49641496D01*
X100860074Y-49622994D01*
X100878011Y-49519043D01*
X100929930Y-49431226D01*
X101012667Y-49360831D01*
X101123057Y-49309144D01*
X101257935Y-49277453D01*
X101414136Y-49267045D01*
X101588496Y-49279206D01*
G37*
G36*
X98824646Y-49277978D02*
G01*
X98927933Y-49291470D01*
X98950000Y-49296113D01*
X99050000Y-49319352D01*
X99050000Y-49409282D01*
X99049154Y-49456029D01*
X99041682Y-49483249D01*
X99020179Y-49493109D01*
X98977242Y-49487779D01*
X98905467Y-49469429D01*
X98874024Y-49460840D01*
X98753771Y-49437356D01*
X98645146Y-49433739D01*
X98553083Y-49448269D01*
X98482515Y-49479227D01*
X98438378Y-49524891D01*
X98425606Y-49583543D01*
X98431802Y-49614981D01*
X98442259Y-49641048D01*
X98459115Y-49664474D01*
X98487830Y-49688975D01*
X98533862Y-49718266D01*
X98602671Y-49756064D01*
X98699716Y-49806082D01*
X98750000Y-49831522D01*
X98845799Y-49882069D01*
X98934167Y-49932692D01*
X99005866Y-49977837D01*
X99051657Y-50011948D01*
X99054623Y-50014699D01*
X99121442Y-50103630D01*
X99152356Y-50202871D01*
X99147016Y-50305078D01*
X99105072Y-50402907D01*
X99074999Y-50442594D01*
X99010664Y-50504504D01*
X98936975Y-50549430D01*
X98842491Y-50583203D01*
X98760972Y-50602680D01*
X98658537Y-50619663D01*
X98556152Y-50626015D01*
X98441797Y-50621729D01*
X98303449Y-50606792D01*
X98270000Y-50602271D01*
X98110000Y-50580063D01*
X98103667Y-50502899D01*
X98100899Y-50431384D01*
X98110745Y-50393490D01*
X98138219Y-50383537D01*
X98188334Y-50395844D01*
X98195842Y-50398453D01*
X98256717Y-50415875D01*
X98338425Y-50434109D01*
X98413909Y-50447654D01*
X98532683Y-50456097D01*
X98636317Y-50444557D01*
X98720711Y-50415955D01*
X98781766Y-50373210D01*
X98815381Y-50319239D01*
X98817457Y-50256963D01*
X98783893Y-50189301D01*
X98781370Y-50186038D01*
X98746835Y-50155823D01*
X98686197Y-50115494D01*
X98609729Y-50071592D01*
X98566370Y-50049149D01*
X98416454Y-49971570D01*
X98300551Y-49903884D01*
X98214939Y-49842695D01*
X98155901Y-49784606D01*
X98119717Y-49726220D01*
X98102667Y-49664141D01*
X98100074Y-49623316D01*
X98118797Y-49519863D01*
X98173445Y-49430055D01*
X98261413Y-49356787D01*
X98380095Y-49302951D01*
X98391931Y-49299238D01*
X98475520Y-49282792D01*
X98584677Y-49273716D01*
X98705640Y-49272086D01*
X98824646Y-49277978D01*
G37*
G36*
X96750084Y-49449148D02*
G01*
X96731093Y-49506116D01*
X96699907Y-49592804D01*
X96657930Y-49705518D01*
X96606562Y-49840561D01*
X96547207Y-49994238D01*
X96481265Y-50162854D01*
X96410140Y-50342714D01*
X96357507Y-50474602D01*
X96320947Y-50570024D01*
X96291946Y-50653807D01*
X96272956Y-50718215D01*
X96266432Y-50755508D01*
X96267087Y-50759827D01*
X96275556Y-50769451D01*
X96295698Y-50776852D01*
X96332070Y-50782309D01*
X96389227Y-50786097D01*
X96471725Y-50788493D01*
X96584122Y-50789774D01*
X96730973Y-50790216D01*
X96767736Y-50790228D01*
X96905015Y-50790709D01*
X97030008Y-50792061D01*
X97136825Y-50794147D01*
X97219573Y-50796828D01*
X97272360Y-50799967D01*
X97288364Y-50802377D01*
X97305474Y-50817828D01*
X97315338Y-50853162D01*
X97319534Y-50916347D01*
X97320000Y-50962078D01*
X97320000Y-51109630D01*
X97004619Y-51435311D01*
X96904210Y-51539145D01*
X96796054Y-51651242D01*
X96684105Y-51767480D01*
X96572316Y-51883739D01*
X96464642Y-51995897D01*
X96365035Y-52099832D01*
X96277449Y-52191422D01*
X96205839Y-52266547D01*
X96154156Y-52321083D01*
X96126507Y-52350743D01*
X96105487Y-52365424D01*
X96100000Y-52358245D01*
X96107875Y-52331115D01*
X96128880Y-52277576D01*
X96159083Y-52207427D01*
X96171987Y-52178818D01*
X96214949Y-52082659D01*
X96260231Y-51978004D01*
X96298496Y-51886458D01*
X96300676Y-51881087D01*
X96329831Y-51810584D01*
X96370338Y-51714720D01*
X96417396Y-51604758D01*
X96466206Y-51491960D01*
X96479333Y-51461861D01*
X96521145Y-51363085D01*
X96555429Y-51276130D01*
X96579605Y-51208030D01*
X96591092Y-51165820D01*
X96591272Y-51156621D01*
X96579907Y-51148262D01*
X96550383Y-51141777D01*
X96498789Y-51136969D01*
X96421215Y-51133640D01*
X96313748Y-51131594D01*
X96172477Y-51130634D01*
X96073076Y-51130496D01*
X95911718Y-51130122D01*
X95786014Y-51128845D01*
X95691625Y-51126435D01*
X95624210Y-51122660D01*
X95579430Y-51117291D01*
X95552946Y-51110096D01*
X95541449Y-51102220D01*
X95528550Y-51064827D01*
X95523167Y-50999426D01*
X95524000Y-50953678D01*
X95530000Y-50833411D01*
X96139895Y-50120961D01*
X96263073Y-49977558D01*
X96378164Y-49844515D01*
X96482606Y-49724724D01*
X96573841Y-49621075D01*
X96649309Y-49536462D01*
X96706448Y-49473774D01*
X96742701Y-49435905D01*
X96755480Y-49425595D01*
X96750084Y-49449148D01*
G37*
%TO.C,SW3*%
D13*
X121500000Y-73450000D02*
X122500000Y-73450000D01*
X121500000Y-74050000D02*
X121500000Y-73450000D01*
X121500000Y-77650000D02*
X121500000Y-78250000D01*
X121500000Y-78250000D02*
X122500000Y-78250000D01*
X124300000Y-76850000D02*
X124300000Y-74850000D01*
%TO.C,C3*%
X112740000Y-62185580D02*
X112740000Y-61904420D01*
X113760000Y-62185580D02*
X113760000Y-61904420D01*
%TD*%
M02*
